<?xml version="1.0" encoding="UTF-8" standalone="no"?>
<!DOCTYPE svg PUBLIC "-//W3C//DTD SVG 1.1//EN"
 "http://www.w3.org/Graphics/SVG/1.1/DTD/svg11.dtd">
<!-- Generated by graphviz version 2.36.0 (20140111.2315)
 -->
<!-- Title: controllers_diagram Pages: 1 -->
<svg width="711pt" height="702pt"
 viewBox="0.00 0.00 711.00 702.00" xmlns="http://www.w3.org/2000/svg" xmlns:xlink="http://www.w3.org/1999/xlink">
<g id="graph0" class="graph" transform="scale(1 1) rotate(0) translate(4 698)">
<title>controllers_diagram</title>
<polygon fill="white" stroke="none" points="-4,4 -4,-698 707,-698 707,4 -4,4"/>
<!-- _diagram_info -->
<g id="node1" class="node"><title>_diagram_info</title>
<text text-anchor="start" x="515" y="-102.6" font-family="Times,serif" font-size="13.00">Controllers diagram</text>
<text text-anchor="start" x="515" y="-88.6" font-family="Times,serif" font-size="13.00">Date: Apr 23 2014 &#45; 15:44</text>
<text text-anchor="start" x="515" y="-74.6" font-family="Times,serif" font-size="13.00">Migration version: 20140423170640</text>
<text text-anchor="start" x="515" y="-60.6" font-family="Times,serif" font-size="13.00">Generated by RailRoady 1.1.1</text>
<text text-anchor="start" x="515" y="-46.6" font-family="Times,serif" font-size="13.00">http://railroady.prestonlee.com</text>
</g>
<!-- CommentsController -->
<g id="node2" class="node"><title>CommentsController</title>
<path fill="none" stroke="black" d="M12,-192.061C12,-192.061 125,-192.061 125,-192.061 131,-192.061 137,-198.061 137,-204.061 137,-204.061 137,-393.061 137,-393.061 137,-399.061 131,-405.061 125,-405.061 125,-405.061 12,-405.061 12,-405.061 6,-405.061 0,-399.061 0,-393.061 0,-393.061 0,-204.061 0,-204.061 0,-198.061 6,-192.061 12,-192.061"/>
<text text-anchor="middle" x="68.5" y="-389.861" font-family="Times,serif" font-size="14.00">CommentsController</text>
<polyline fill="none" stroke="black" points="0,-382.061 137,-382.061 "/>
<text text-anchor="start" x="8" y="-366.861" font-family="Times,serif" font-size="14.00">create</text>
<text text-anchor="start" x="8" y="-351.861" font-family="Times,serif" font-size="14.00">destroy</text>
<text text-anchor="start" x="8" y="-336.861" font-family="Times,serif" font-size="14.00">edit</text>
<text text-anchor="start" x="8" y="-321.861" font-family="Times,serif" font-size="14.00">index</text>
<text text-anchor="start" x="8" y="-306.861" font-family="Times,serif" font-size="14.00">new</text>
<text text-anchor="start" x="8" y="-291.861" font-family="Times,serif" font-size="14.00">show</text>
<text text-anchor="start" x="8" y="-276.861" font-family="Times,serif" font-size="14.00">update</text>
<polyline fill="none" stroke="black" points="0,-269.061 137,-269.061 "/>
<polyline fill="none" stroke="black" points="0,-245.061 137,-245.061 "/>
<text text-anchor="start" x="8" y="-229.861" font-family="Times,serif" font-size="14.00">_layout</text>
<text text-anchor="start" x="8" y="-214.861" font-family="Times,serif" font-size="14.00">comment_params</text>
<text text-anchor="start" x="8" y="-199.861" font-family="Times,serif" font-size="14.00">set_comment</text>
</g>
<!-- ApplicationController -->
<g id="node3" class="node"><title>ApplicationController</title>
<path fill="none" stroke="black" d="M235.242,-260.991C235.242,-260.991 353.242,-260.991 353.242,-260.991 359.242,-260.991 365.242,-266.991 365.242,-272.991 365.242,-272.991 365.242,-357.991 365.242,-357.991 365.242,-363.991 359.242,-369.991 353.242,-369.991 353.242,-369.991 235.242,-369.991 235.242,-369.991 229.242,-369.991 223.242,-363.991 223.242,-357.991 223.242,-357.991 223.242,-272.991 223.242,-272.991 223.242,-266.991 229.242,-260.991 235.242,-260.991"/>
<text text-anchor="middle" x="294.242" y="-354.791" font-family="Times,serif" font-size="14.00">ApplicationController</text>
<polyline fill="none" stroke="black" points="223.242,-346.991 365.242,-346.991 "/>
<polyline fill="none" stroke="black" points="223.242,-322.991 365.242,-322.991 "/>
<polyline fill="none" stroke="black" points="223.242,-298.991 365.242,-298.991 "/>
<text text-anchor="start" x="231.242" y="-283.791" font-family="Times,serif" font-size="14.00">_layout</text>
<text text-anchor="start" x="231.242" y="-268.791" font-family="Times,serif" font-size="14.00">choose_layout</text>
</g>
<!-- ApplicationController&#45;&gt;CommentsController -->
<g id="edge1" class="edge"><title>ApplicationController&#45;&gt;CommentsController</title>
<path fill="none" stroke="black" d="M223.126,-310.158C195.727,-308.103 164.508,-305.761 137.329,-303.723"/>
</g>
<!-- ProjectsController -->
<g id="node4" class="node"><title>ProjectsController</title>
<path fill="none" stroke="black" d="M312.727,-0.5C312.727,-0.5 408.727,-0.5 408.727,-0.5 414.727,-0.5 420.727,-6.5 420.727,-12.5 420.727,-12.5 420.727,-186.5 420.727,-186.5 420.727,-192.5 414.727,-198.5 408.727,-198.5 408.727,-198.5 312.727,-198.5 312.727,-198.5 306.727,-198.5 300.727,-192.5 300.727,-186.5 300.727,-186.5 300.727,-12.5 300.727,-12.5 300.727,-6.5 306.727,-0.5 312.727,-0.5"/>
<text text-anchor="middle" x="360.727" y="-183.3" font-family="Times,serif" font-size="14.00">ProjectsController</text>
<polyline fill="none" stroke="black" points="300.727,-175.5 420.727,-175.5 "/>
<text text-anchor="start" x="308.727" y="-160.3" font-family="Times,serif" font-size="14.00">by_prompt</text>
<text text-anchor="start" x="308.727" y="-145.3" font-family="Times,serif" font-size="14.00">create</text>
<text text-anchor="start" x="308.727" y="-130.3" font-family="Times,serif" font-size="14.00">destroy</text>
<text text-anchor="start" x="308.727" y="-115.3" font-family="Times,serif" font-size="14.00">edit</text>
<text text-anchor="start" x="308.727" y="-100.3" font-family="Times,serif" font-size="14.00">index</text>
<text text-anchor="start" x="308.727" y="-85.3" font-family="Times,serif" font-size="14.00">new</text>
<text text-anchor="start" x="308.727" y="-70.3" font-family="Times,serif" font-size="14.00">show</text>
<text text-anchor="start" x="308.727" y="-55.3" font-family="Times,serif" font-size="14.00">update</text>
<polyline fill="none" stroke="black" points="300.727,-47.5 420.727,-47.5 "/>
<polyline fill="none" stroke="black" points="300.727,-23.5 420.727,-23.5 "/>
<text text-anchor="start" x="308.727" y="-8.3" font-family="Times,serif" font-size="14.00">_layout</text>
</g>
<!-- ApplicationController&#45;&gt;ProjectsController -->
<g id="edge2" class="edge"><title>ApplicationController&#45;&gt;ProjectsController</title>
<path fill="none" stroke="black" d="M311.019,-260.988C316.866,-241.992 323.622,-220.042 330.233,-198.567"/>
</g>
<!-- LandingController -->
<g id="node5" class="node"><title>LandingController</title>
<path fill="none" stroke="black" d="M276.283,-493.186C276.283,-493.186 373.283,-493.186 373.283,-493.186 379.283,-493.186 385.283,-499.186 385.283,-505.186 385.283,-505.186 385.283,-574.186 385.283,-574.186 385.283,-580.186 379.283,-586.186 373.283,-586.186 373.283,-586.186 276.283,-586.186 276.283,-586.186 270.283,-586.186 264.283,-580.186 264.283,-574.186 264.283,-574.186 264.283,-505.186 264.283,-505.186 264.283,-499.186 270.283,-493.186 276.283,-493.186"/>
<text text-anchor="middle" x="324.783" y="-570.986" font-family="Times,serif" font-size="14.00">LandingController</text>
<polyline fill="none" stroke="black" points="264.283,-563.186 385.283,-563.186 "/>
<text text-anchor="start" x="272.283" y="-547.986" font-family="Times,serif" font-size="14.00">index</text>
<polyline fill="none" stroke="black" points="264.283,-540.186 385.283,-540.186 "/>
<polyline fill="none" stroke="black" points="264.283,-516.186 385.283,-516.186 "/>
<text text-anchor="start" x="272.283" y="-500.986" font-family="Times,serif" font-size="14.00">_layout</text>
</g>
<!-- ApplicationController&#45;&gt;LandingController -->
<g id="edge3" class="edge"><title>ApplicationController&#45;&gt;LandingController</title>
<path fill="none" stroke="black" d="M301.674,-370.049C306.795,-407.637 313.528,-457.067 318.405,-492.865"/>
</g>
<!-- PromptsController -->
<g id="node6" class="node"><title>PromptsController</title>
<path fill="none" stroke="black" d="M439.516,-317.099C439.516,-317.099 537.516,-317.099 537.516,-317.099 543.516,-317.099 549.516,-323.099 549.516,-329.099 549.516,-329.099 549.516,-533.099 549.516,-533.099 549.516,-539.099 543.516,-545.099 537.516,-545.099 537.516,-545.099 439.516,-545.099 439.516,-545.099 433.516,-545.099 427.516,-539.099 427.516,-533.099 427.516,-533.099 427.516,-329.099 427.516,-329.099 427.516,-323.099 433.516,-317.099 439.516,-317.099"/>
<text text-anchor="middle" x="488.516" y="-529.899" font-family="Times,serif" font-size="14.00">PromptsController</text>
<polyline fill="none" stroke="black" points="427.516,-522.099 549.516,-522.099 "/>
<text text-anchor="start" x="435.516" y="-506.899" font-family="Times,serif" font-size="14.00">by_user</text>
<text text-anchor="start" x="435.516" y="-491.899" font-family="Times,serif" font-size="14.00">create</text>
<text text-anchor="start" x="435.516" y="-476.899" font-family="Times,serif" font-size="14.00">destroy</text>
<text text-anchor="start" x="435.516" y="-461.899" font-family="Times,serif" font-size="14.00">edit</text>
<text text-anchor="start" x="435.516" y="-446.899" font-family="Times,serif" font-size="14.00">index</text>
<text text-anchor="start" x="435.516" y="-431.899" font-family="Times,serif" font-size="14.00">new</text>
<text text-anchor="start" x="435.516" y="-416.899" font-family="Times,serif" font-size="14.00">show</text>
<text text-anchor="start" x="435.516" y="-401.899" font-family="Times,serif" font-size="14.00">update</text>
<polyline fill="none" stroke="black" points="427.516,-394.099 549.516,-394.099 "/>
<polyline fill="none" stroke="black" points="427.516,-370.099 549.516,-370.099 "/>
<text text-anchor="start" x="435.516" y="-354.899" font-family="Times,serif" font-size="14.00">_layout</text>
<text text-anchor="start" x="435.516" y="-339.899" font-family="Times,serif" font-size="14.00">prompt_params</text>
<text text-anchor="start" x="435.516" y="-324.899" font-family="Times,serif" font-size="14.00">set_prompt</text>
</g>
<!-- ApplicationController&#45;&gt;PromptsController -->
<g id="edge4" class="edge"><title>ApplicationController&#45;&gt;PromptsController</title>
<path fill="none" stroke="black" d="M365.479,-357.883C385.73,-369.934 407.601,-382.948 427.207,-394.615"/>
</g>
<!-- ProfilesController -->
<g id="node7" class="node"><title>ProfilesController</title>
<path fill="none" stroke="black" d="M92.0838,-433.652C92.0838,-433.652 186.084,-433.652 186.084,-433.652 192.084,-433.652 198.084,-439.652 198.084,-445.652 198.084,-445.652 198.084,-514.652 198.084,-514.652 198.084,-520.652 192.084,-526.652 186.084,-526.652 186.084,-526.652 92.0838,-526.652 92.0838,-526.652 86.0838,-526.652 80.0838,-520.652 80.0838,-514.652 80.0838,-514.652 80.0838,-445.652 80.0838,-445.652 80.0838,-439.652 86.0838,-433.652 92.0838,-433.652"/>
<text text-anchor="middle" x="139.084" y="-511.452" font-family="Times,serif" font-size="14.00">ProfilesController</text>
<polyline fill="none" stroke="black" points="80.0838,-503.652 198.084,-503.652 "/>
<text text-anchor="start" x="88.0838" y="-488.452" font-family="Times,serif" font-size="14.00">show</text>
<polyline fill="none" stroke="black" points="80.0838,-480.652 198.084,-480.652 "/>
<polyline fill="none" stroke="black" points="80.0838,-456.652 198.084,-456.652 "/>
<text text-anchor="start" x="88.0838" y="-441.452" font-family="Times,serif" font-size="14.00">_layout</text>
</g>
<!-- ApplicationController&#45;&gt;ProfilesController -->
<g id="edge5" class="edge"><title>ApplicationController&#45;&gt;ProfilesController</title>
<path fill="none" stroke="black" d="M242.577,-370.321C223.271,-390.809 201.545,-413.865 183.003,-433.543"/>
</g>
<!-- JoinController -->
<g id="node8" class="node"><title>JoinController</title>
<path fill="none" stroke="black" d="M129.241,-75.044C129.241,-75.044 203.241,-75.044 203.241,-75.044 209.241,-75.044 215.241,-81.044 215.241,-87.044 215.241,-87.044 215.241,-171.044 215.241,-171.044 215.241,-177.044 209.241,-183.044 203.241,-183.044 203.241,-183.044 129.241,-183.044 129.241,-183.044 123.241,-183.044 117.241,-177.044 117.241,-171.044 117.241,-171.044 117.241,-87.044 117.241,-87.044 117.241,-81.044 123.241,-75.044 129.241,-75.044"/>
<text text-anchor="middle" x="166.241" y="-167.844" font-family="Times,serif" font-size="14.00">JoinController</text>
<polyline fill="none" stroke="black" points="117.241,-160.044 215.241,-160.044 "/>
<text text-anchor="start" x="125.241" y="-144.844" font-family="Times,serif" font-size="14.00">create</text>
<text text-anchor="start" x="125.241" y="-129.844" font-family="Times,serif" font-size="14.00">index</text>
<polyline fill="none" stroke="black" points="117.241,-122.044 215.241,-122.044 "/>
<polyline fill="none" stroke="black" points="117.241,-98.044 215.241,-98.044 "/>
<text text-anchor="start" x="125.241" y="-82.844" font-family="Times,serif" font-size="14.00">_layout</text>
</g>
<!-- ApplicationController&#45;&gt;JoinController -->
<g id="edge6" class="edge"><title>ApplicationController&#45;&gt;JoinController</title>
<path fill="none" stroke="black" d="M256.702,-260.811C239.883,-236.312 220.105,-207.502 203.338,-183.08"/>
</g>
<!-- BadgesController -->
<g id="node9" class="node"><title>BadgesController</title>
<path fill="none" stroke="black" d="M460.135,-187.878C460.135,-187.878 550.135,-187.878 550.135,-187.878 556.135,-187.878 562.135,-193.878 562.135,-199.878 562.135,-199.878 562.135,-268.878 562.135,-268.878 562.135,-274.878 556.135,-280.878 550.135,-280.878 550.135,-280.878 460.135,-280.878 460.135,-280.878 454.135,-280.878 448.135,-274.878 448.135,-268.878 448.135,-268.878 448.135,-199.878 448.135,-199.878 448.135,-193.878 454.135,-187.878 460.135,-187.878"/>
<text text-anchor="middle" x="505.135" y="-265.678" font-family="Times,serif" font-size="14.00">BadgesController</text>
<polyline fill="none" stroke="black" points="448.135,-257.878 562.135,-257.878 "/>
<text text-anchor="start" x="456.135" y="-242.678" font-family="Times,serif" font-size="14.00">index</text>
<polyline fill="none" stroke="black" points="448.135,-234.878 562.135,-234.878 "/>
<polyline fill="none" stroke="black" points="448.135,-210.878 562.135,-210.878 "/>
<text text-anchor="start" x="456.135" y="-195.678" font-family="Times,serif" font-size="14.00">_layout</text>
</g>
<!-- ApplicationController&#45;&gt;BadgesController -->
<g id="edge7" class="edge"><title>ApplicationController&#45;&gt;BadgesController</title>
<path fill="none" stroke="black" d="M365.347,-288.143C392.252,-277.795 422.506,-266.158 447.969,-256.365"/>
</g>
<!-- Mercury::ImagesController -->
<g id="node10" class="node"><title>Mercury::ImagesController</title>
<path fill="none" stroke="black" d="M51,-585.5C51,-585.5 194,-585.5 194,-585.5 200,-585.5 206,-591.5 206,-597.5 206,-597.5 206,-681.5 206,-681.5 206,-687.5 200,-693.5 194,-693.5 194,-693.5 51,-693.5 51,-693.5 45,-693.5 39,-687.5 39,-681.5 39,-681.5 39,-597.5 39,-597.5 39,-591.5 45,-585.5 51,-585.5"/>
<text text-anchor="middle" x="122.5" y="-678.3" font-family="Times,serif" font-size="14.00">Mercury::ImagesController</text>
<polyline fill="none" stroke="black" points="39,-670.5 206,-670.5 "/>
<text text-anchor="start" x="47" y="-655.3" font-family="Times,serif" font-size="14.00">create</text>
<text text-anchor="start" x="47" y="-640.3" font-family="Times,serif" font-size="14.00">destroy</text>
<polyline fill="none" stroke="black" points="39,-632.5 206,-632.5 "/>
<polyline fill="none" stroke="black" points="39,-608.5 206,-608.5 "/>
<text text-anchor="start" x="47" y="-593.3" font-family="Times,serif" font-size="14.00">_layout</text>
</g>
</g>
</svg>
