<?xml version="1.0" encoding="UTF-8" standalone="no"?>
<!DOCTYPE svg PUBLIC "-//W3C//DTD SVG 1.1//EN"
 "http://www.w3.org/Graphics/SVG/1.1/DTD/svg11.dtd">
<!-- Generated by graphviz version 2.36.0 (20140111.2315)
 -->
<!-- Title: controllers_diagram Pages: 1 -->
<svg width="699pt" height="529pt"
 viewBox="0.00 0.00 699.00 529.22" xmlns="http://www.w3.org/2000/svg" xmlns:xlink="http://www.w3.org/1999/xlink">
<g id="graph0" class="graph" transform="scale(1 1) rotate(0) translate(4 525.219)">
<title>controllers_diagram</title>
<polygon fill="white" stroke="none" points="-4,4 -4,-525.219 695,-525.219 695,4 -4,4"/>
<!-- _diagram_info -->
<g id="node1" class="node"><title>_diagram_info</title>
<text text-anchor="start" x="503" y="-333.6" font-family="Times,serif" font-size="13.00">Controllers diagram</text>
<text text-anchor="start" x="503" y="-319.6" font-family="Times,serif" font-size="13.00">Date: Apr 03 2014 &#45; 12:16</text>
<text text-anchor="start" x="503" y="-305.6" font-family="Times,serif" font-size="13.00">Migration version: 20140402194048</text>
<text text-anchor="start" x="503" y="-291.6" font-family="Times,serif" font-size="13.00">Generated by RailRoady 1.1.1</text>
<text text-anchor="start" x="503" y="-277.6" font-family="Times,serif" font-size="13.00">http://railroady.prestonlee.com</text>
</g>
<!-- ApplicationController -->
<g id="node2" class="node"><title>ApplicationController</title>
<path fill="none" stroke="black" d="M221.021,-203.401C221.021,-203.401 398.021,-203.401 398.021,-203.401 404.021,-203.401 410.021,-209.401 410.021,-215.401 410.021,-215.401 410.021,-299.401 410.021,-299.401 410.021,-305.401 404.021,-311.401 398.021,-311.401 398.021,-311.401 221.021,-311.401 221.021,-311.401 215.021,-311.401 209.021,-305.401 209.021,-299.401 209.021,-299.401 209.021,-215.401 209.021,-215.401 209.021,-209.401 215.021,-203.401 221.021,-203.401"/>
<text text-anchor="middle" x="309.521" y="-296.201" font-family="Times,serif" font-size="14.00">ApplicationController</text>
<polyline fill="none" stroke="black" points="209.021,-288.401 410.021,-288.401 "/>
<text text-anchor="start" x="217.021" y="-273.201" font-family="Times,serif" font-size="14.00">_one_time_conditions_valid_94?</text>
<polyline fill="none" stroke="black" points="209.021,-265.401 410.021,-265.401 "/>
<polyline fill="none" stroke="black" points="209.021,-241.401 410.021,-241.401 "/>
<text text-anchor="start" x="217.021" y="-226.201" font-family="Times,serif" font-size="14.00">_layout</text>
<text text-anchor="start" x="217.021" y="-211.201" font-family="Times,serif" font-size="14.00">choose_layout</text>
</g>
<!-- ProjectsController -->
<g id="node3" class="node"><title>ProjectsController</title>
<path fill="none" stroke="black" d="M472.017,-29.4261C472.017,-29.4261 568.017,-29.4261 568.017,-29.4261 574.017,-29.4261 580.017,-35.4261 580.017,-41.4261 580.017,-41.4261 580.017,-200.426 580.017,-200.426 580.017,-206.426 574.017,-212.426 568.017,-212.426 568.017,-212.426 472.017,-212.426 472.017,-212.426 466.017,-212.426 460.017,-206.426 460.017,-200.426 460.017,-200.426 460.017,-41.4261 460.017,-41.4261 460.017,-35.4261 466.017,-29.4261 472.017,-29.4261"/>
<text text-anchor="middle" x="520.017" y="-197.226" font-family="Times,serif" font-size="14.00">ProjectsController</text>
<polyline fill="none" stroke="black" points="460.017,-189.426 580.017,-189.426 "/>
<text text-anchor="start" x="468.017" y="-174.226" font-family="Times,serif" font-size="14.00">create</text>
<text text-anchor="start" x="468.017" y="-159.226" font-family="Times,serif" font-size="14.00">destroy</text>
<text text-anchor="start" x="468.017" y="-144.226" font-family="Times,serif" font-size="14.00">edit</text>
<text text-anchor="start" x="468.017" y="-129.226" font-family="Times,serif" font-size="14.00">index</text>
<text text-anchor="start" x="468.017" y="-114.226" font-family="Times,serif" font-size="14.00">new</text>
<text text-anchor="start" x="468.017" y="-99.2261" font-family="Times,serif" font-size="14.00">show</text>
<text text-anchor="start" x="468.017" y="-84.2261" font-family="Times,serif" font-size="14.00">update</text>
<polyline fill="none" stroke="black" points="460.017,-76.4261 580.017,-76.4261 "/>
<polyline fill="none" stroke="black" points="460.017,-52.4261 580.017,-52.4261 "/>
<text text-anchor="start" x="468.017" y="-37.2261" font-family="Times,serif" font-size="14.00">_layout</text>
</g>
<!-- ApplicationController&#45;&gt;ProjectsController -->
<g id="edge1" class="edge"><title>ApplicationController&#45;&gt;ProjectsController</title>
<path fill="none" stroke="black" d="M393.017,-203.267C415.4,-188.755 439.155,-173.353 459.991,-159.844"/>
</g>
<!-- LandingController -->
<g id="node4" class="node"><title>LandingController</title>
<path fill="none" stroke="black" d="M124.781,-0.5C124.781,-0.5 221.781,-0.5 221.781,-0.5 227.781,-0.5 233.781,-6.5 233.781,-12.5 233.781,-12.5 233.781,-81.5 233.781,-81.5 233.781,-87.5 227.781,-93.5 221.781,-93.5 221.781,-93.5 124.781,-93.5 124.781,-93.5 118.781,-93.5 112.781,-87.5 112.781,-81.5 112.781,-81.5 112.781,-12.5 112.781,-12.5 112.781,-6.5 118.781,-0.5 124.781,-0.5"/>
<text text-anchor="middle" x="173.281" y="-78.3" font-family="Times,serif" font-size="14.00">LandingController</text>
<polyline fill="none" stroke="black" points="112.781,-70.5 233.781,-70.5 "/>
<text text-anchor="start" x="120.781" y="-55.3" font-family="Times,serif" font-size="14.00">index</text>
<polyline fill="none" stroke="black" points="112.781,-47.5 233.781,-47.5 "/>
<polyline fill="none" stroke="black" points="112.781,-23.5 233.781,-23.5 "/>
<text text-anchor="start" x="120.781" y="-8.3" font-family="Times,serif" font-size="14.00">_layout</text>
</g>
<!-- ApplicationController&#45;&gt;LandingController -->
<g id="edge2" class="edge"><title>ApplicationController&#45;&gt;LandingController</title>
<path fill="none" stroke="black" d="M274.436,-203.218C252.439,-169.247 224.378,-125.912 203.394,-93.5053"/>
</g>
<!-- MembersController -->
<g id="node5" class="node"><title>MembersController</title>
<path fill="none" stroke="black" d="M12,-281.825C12,-281.825 189,-281.825 189,-281.825 195,-281.825 201,-287.825 201,-293.825 201,-293.825 201,-497.825 201,-497.825 201,-503.825 195,-509.825 189,-509.825 189,-509.825 12,-509.825 12,-509.825 6,-509.825 0,-503.825 0,-497.825 0,-497.825 0,-293.825 0,-293.825 0,-287.825 6,-281.825 12,-281.825"/>
<text text-anchor="middle" x="100.5" y="-494.625" font-family="Times,serif" font-size="14.00">MembersController</text>
<polyline fill="none" stroke="black" points="0,-486.825 201,-486.825 "/>
<text text-anchor="start" x="8" y="-471.625" font-family="Times,serif" font-size="14.00">_callback_before_95</text>
<text text-anchor="start" x="8" y="-456.625" font-family="Times,serif" font-size="14.00">_one_time_conditions_valid_96?</text>
<text text-anchor="start" x="8" y="-441.625" font-family="Times,serif" font-size="14.00">create</text>
<text text-anchor="start" x="8" y="-426.625" font-family="Times,serif" font-size="14.00">destroy</text>
<text text-anchor="start" x="8" y="-411.625" font-family="Times,serif" font-size="14.00">edit</text>
<text text-anchor="start" x="8" y="-396.625" font-family="Times,serif" font-size="14.00">index</text>
<text text-anchor="start" x="8" y="-381.625" font-family="Times,serif" font-size="14.00">new</text>
<text text-anchor="start" x="8" y="-366.625" font-family="Times,serif" font-size="14.00">params_user</text>
<text text-anchor="start" x="8" y="-351.625" font-family="Times,serif" font-size="14.00">show</text>
<text text-anchor="start" x="8" y="-336.625" font-family="Times,serif" font-size="14.00">update</text>
<polyline fill="none" stroke="black" points="0,-328.825 201,-328.825 "/>
<polyline fill="none" stroke="black" points="0,-304.825 201,-304.825 "/>
<text text-anchor="start" x="8" y="-289.625" font-family="Times,serif" font-size="14.00">_layout</text>
</g>
<!-- ApplicationController&#45;&gt;MembersController -->
<g id="edge3" class="edge"><title>ApplicationController&#45;&gt;MembersController</title>
<path fill="none" stroke="black" d="M227.81,-311.514C219.108,-317.277 210.184,-323.187 201.296,-329.073"/>
</g>
<!-- JoinController -->
<g id="node6" class="node"><title>JoinController</title>
<path fill="none" stroke="black" d="M410.915,-412.719C410.915,-412.719 484.915,-412.719 484.915,-412.719 490.915,-412.719 496.915,-418.719 496.915,-424.719 496.915,-424.719 496.915,-508.719 496.915,-508.719 496.915,-514.719 490.915,-520.719 484.915,-520.719 484.915,-520.719 410.915,-520.719 410.915,-520.719 404.915,-520.719 398.915,-514.719 398.915,-508.719 398.915,-508.719 398.915,-424.719 398.915,-424.719 398.915,-418.719 404.915,-412.719 410.915,-412.719"/>
<text text-anchor="middle" x="447.915" y="-505.519" font-family="Times,serif" font-size="14.00">JoinController</text>
<polyline fill="none" stroke="black" points="398.915,-497.719 496.915,-497.719 "/>
<text text-anchor="start" x="406.915" y="-482.519" font-family="Times,serif" font-size="14.00">create</text>
<text text-anchor="start" x="406.915" y="-467.519" font-family="Times,serif" font-size="14.00">index</text>
<polyline fill="none" stroke="black" points="398.915,-459.719 496.915,-459.719 "/>
<polyline fill="none" stroke="black" points="398.915,-435.719 496.915,-435.719 "/>
<text text-anchor="start" x="406.915" y="-420.519" font-family="Times,serif" font-size="14.00">_layout</text>
</g>
<!-- ApplicationController&#45;&gt;JoinController -->
<g id="edge4" class="edge"><title>ApplicationController&#45;&gt;JoinController</title>
<path fill="none" stroke="black" d="M345.341,-311.578C365.844,-342.588 391.487,-381.373 412.005,-412.406"/>
</g>
</g>
</svg>
