<?xml version="1.0" encoding="UTF-8" standalone="no"?>
<!DOCTYPE svg PUBLIC "-//W3C//DTD SVG 1.1//EN"
 "http://www.w3.org/Graphics/SVG/1.1/DTD/svg11.dtd">
<!-- Generated by graphviz version 2.36.0 (20140111.2315)
 -->
<!-- Title: models_diagram Pages: 1 -->
<svg width="677pt" height="302pt"
 viewBox="0.00 0.00 677.00 302.00" xmlns="http://www.w3.org/2000/svg" xmlns:xlink="http://www.w3.org/1999/xlink">
<g id="graph0" class="graph" transform="scale(1 1) rotate(0) translate(4 298)">
<title>models_diagram</title>
<polygon fill="white" stroke="none" points="-4,4 -4,-298 673,-298 673,4 -4,4"/>
<!-- _diagram_info -->
<g id="node1" class="node"><title>_diagram_info</title>
<text text-anchor="start" x="8" y="-279.6" font-family="Times,serif" font-size="13.00">Models diagram</text>
<text text-anchor="start" x="8" y="-265.6" font-family="Times,serif" font-size="13.00">Date: Apr 03 2014 &#45; 12:16</text>
<text text-anchor="start" x="8" y="-251.6" font-family="Times,serif" font-size="13.00">Migration version: 20140402194048</text>
<text text-anchor="start" x="8" y="-237.6" font-family="Times,serif" font-size="13.00">Generated by RailRoady 1.1.1</text>
<text text-anchor="start" x="8" y="-223.6" font-family="Times,serif" font-size="13.00">http://railroady.prestonlee.com</text>
</g>
<!-- Role -->
<g id="node2" class="node"><title>Role</title>
<ellipse fill="none" stroke="black" cx="183" cy="-162" rx="26.949" ry="18"/>
<text text-anchor="middle" x="183" y="-158.3" font-family="Times,serif" font-size="14.00">Role</text>
</g>
<!-- User -->
<g id="node4" class="node"><title>User</title>
<ellipse fill="none" stroke="black" cx="228" cy="-90" rx="27.4223" ry="18"/>
<text text-anchor="middle" x="228" y="-86.3" font-family="Times,serif" font-size="14.00">User</text>
</g>
<!-- Role&#45;&gt;User -->
<g id="edge1" class="edge"><title>Role&#45;&gt;User</title>
<path fill="none" stroke="#d9c36f" d="M198.742,-136.513C203.096,-129.739 207.824,-122.386 212.183,-115.605"/>
<polygon fill="#d9c36f" stroke="#d9c36f" points="198.619,-136.704 189.426,-142.682 195.915,-140.91 193.211,-145.116 193.211,-145.116 193.211,-145.116 195.915,-140.91 196.997,-147.549 198.619,-136.704 198.619,-136.704"/>
<polygon fill="#d9c36f" stroke="#d9c36f" points="212.422,-115.233 221.615,-109.255 215.125,-111.027 217.829,-106.821 217.829,-106.821 217.829,-106.821 215.125,-111.027 214.044,-104.388 212.422,-115.233 212.422,-115.233"/>
</g>
<!-- Project -->
<g id="node3" class="node"><title>Project</title>
<ellipse fill="none" stroke="black" cx="265" cy="-162" rx="36.096" ry="18"/>
<text text-anchor="middle" x="265" y="-158.3" font-family="Times,serif" font-size="14.00">Project</text>
</g>
<!-- Post -->
<g id="node9" class="node"><title>Post</title>
<ellipse fill="none" stroke="black" cx="228" cy="-18" rx="27" ry="18"/>
<text text-anchor="middle" x="228" y="-14.3" font-family="Times,serif" font-size="14.00">Post</text>
</g>
<!-- User&#45;&gt;Post -->
<g id="edge4" class="edge"><title>User&#45;&gt;Post</title>
<path fill="none" stroke="#be69e1" d="M228,-63.6398C228,-58.0629 228,-52.1319 228,-46.4761"/>
<ellipse fill="none" stroke="#be69e1" cx="228" cy="-67.6966" rx="4" ry="4"/>
<polygon fill="#be69e1" stroke="#be69e1" points="228,-46.1043 232.5,-36.1043 228,-41.1043 228,-36.1043 228,-36.1043 228,-36.1043 228,-41.1043 223.5,-36.1044 228,-46.1043 228,-46.1043"/>
</g>
<!-- Ckeditor::AttachmentFile -->
<g id="node5" class="node"><title>Ckeditor::AttachmentFile</title>
<ellipse fill="none" stroke="black" cx="402" cy="-90" rx="104.937" ry="18"/>
<text text-anchor="middle" x="402" y="-86.3" font-family="Times,serif" font-size="14.00">Ckeditor::AttachmentFile</text>
</g>
<!-- Ckeditor::Picture -->
<g id="node6" class="node"><title>Ckeditor::Picture</title>
<ellipse fill="none" stroke="black" cx="597" cy="-90" rx="72.2155" ry="18"/>
<text text-anchor="middle" x="597" y="-86.3" font-family="Times,serif" font-size="14.00">Ckeditor::Picture</text>
</g>
<!-- Ckeditor::Asset -->
<g id="node7" class="node"><title>Ckeditor::Asset</title>
<ellipse fill="none" stroke="black" cx="425" cy="-162" rx="67.3907" ry="18"/>
<text text-anchor="middle" x="425" y="-158.3" font-family="Times,serif" font-size="14.00">Ckeditor::Asset</text>
</g>
<!-- Ckeditor::Asset&#45;&gt;Ckeditor::AttachmentFile -->
<g id="edge6" class="edge"><title>Ckeditor::Asset&#45;&gt;Ckeditor::AttachmentFile</title>
<path fill="none" stroke="black" d="M419.432,-144.055C415.869,-133.211 411.26,-119.183 407.676,-108.275"/>
</g>
<!-- Ckeditor::Asset&#45;&gt;Ckeditor::Picture -->
<g id="edge7" class="edge"><title>Ckeditor::Asset&#45;&gt;Ckeditor::Picture</title>
<path fill="none" stroke="black" d="M460.639,-146.496C489.961,-134.562 531.344,-117.72 560.815,-105.726"/>
</g>
<!-- ActiveRecord::Base -->
<g id="node8" class="node"><title>ActiveRecord::Base</title>
<ellipse fill="none" stroke="black" cx="297" cy="-255" rx="82.3139" ry="18"/>
<text text-anchor="middle" x="297" y="-251.3" font-family="Times,serif" font-size="14.00">ActiveRecord::Base</text>
</g>
<!-- ActiveRecord::Base&#45;&gt;Role -->
<g id="edge2" class="edge"><title>ActiveRecord::Base&#45;&gt;Role</title>
<path fill="none" stroke="black" d="M276.355,-237.521C254.412,-220.004 220.13,-192.639 199.784,-176.398"/>
</g>
<!-- ActiveRecord::Base&#45;&gt;Project -->
<g id="edge3" class="edge"><title>ActiveRecord::Base&#45;&gt;Project</title>
<path fill="none" stroke="black" d="M290.981,-236.884C285.26,-220.614 276.704,-196.284 270.992,-180.04"/>
</g>
<!-- ActiveRecord::Base&#45;&gt;User -->
<g id="edge5" class="edge"><title>ActiveRecord::Base&#45;&gt;User</title>
<path fill="none" stroke="black" d="M304.913,-236.809C314.107,-214.107 326.09,-173.557 310,-144 297.762,-121.519 271.432,-107.119 251.892,-99.0886"/>
</g>
<!-- ActiveRecord::Base&#45;&gt;Ckeditor::Asset -->
<g id="edge8" class="edge"><title>ActiveRecord::Base&#45;&gt;Ckeditor::Asset</title>
<path fill="none" stroke="black" d="M320.18,-237.521C343.522,-220.926 379.297,-195.492 402.422,-179.051"/>
</g>
</g>
</svg>
