<?xml version="1.0" encoding="UTF-8" standalone="no"?>
<!DOCTYPE svg PUBLIC "-//W3C//DTD SVG 1.1//EN"
 "http://www.w3.org/Graphics/SVG/1.1/DTD/svg11.dtd">
<!-- Generated by graphviz version 2.36.0 (20140111.2315)
 -->
<!-- Title: models_diagram Pages: 1 -->
<svg width="1036pt" height="1110pt"
 viewBox="0.00 0.00 1036.05 1110.00" xmlns="http://www.w3.org/2000/svg" xmlns:xlink="http://www.w3.org/1999/xlink">
<g id="graph0" class="graph" transform="scale(1 1) rotate(0) translate(4 1106)">
<title>models_diagram</title>
<polygon fill="white" stroke="none" points="-4,4 -4,-1106 1032.05,-1106 1032.05,4 -4,4"/>
<!-- _diagram_info -->
<g id="node1" class="node"><title>_diagram_info</title>
<text text-anchor="start" x="51.0518" y="-1087.6" font-family="Times,serif" font-size="13.00">Models diagram</text>
<text text-anchor="start" x="51.0518" y="-1073.6" font-family="Times,serif" font-size="13.00">Date: Apr 23 2014 &#45; 15:44</text>
<text text-anchor="start" x="51.0518" y="-1059.6" font-family="Times,serif" font-size="13.00">Migration version: 20140423170640</text>
<text text-anchor="start" x="51.0518" y="-1045.6" font-family="Times,serif" font-size="13.00">Generated by RailRoady 1.1.1</text>
<text text-anchor="start" x="51.0518" y="-1031.6" font-family="Times,serif" font-size="13.00">http://railroady.prestonlee.com</text>
</g>
<!-- Profile -->
<g id="node2" class="node"><title>Profile</title>
<path fill="none" stroke="black" d="M90.0518,-181.5C90.0518,-181.5 198.052,-181.5 198.052,-181.5 204.052,-181.5 210.052,-187.5 210.052,-193.5 210.052,-193.5 210.052,-260.5 210.052,-260.5 210.052,-266.5 204.052,-272.5 198.052,-272.5 198.052,-272.5 90.0518,-272.5 90.0518,-272.5 84.0518,-272.5 78.0518,-266.5 78.0518,-260.5 78.0518,-260.5 78.0518,-193.5 78.0518,-193.5 78.0518,-187.5 84.0518,-181.5 90.0518,-181.5"/>
<text text-anchor="middle" x="144.052" y="-257.3" font-family="Times,serif" font-size="14.00">Profile</text>
<polyline fill="none" stroke="black" points="78.0518,-249.5 210.052,-249.5 "/>
<text text-anchor="start" x="86.0518" y="-234.3" font-family="Times,serif" font-size="14.00">id :integer</text>
<text text-anchor="start" x="86.0518" y="-219.3" font-family="Times,serif" font-size="14.00">user_id :integer</text>
<text text-anchor="start" x="86.0518" y="-204.3" font-family="Times,serif" font-size="14.00">created_at :datetime</text>
<text text-anchor="start" x="86.0518" y="-189.3" font-family="Times,serif" font-size="14.00">updated_at :datetime</text>
</g>
<!-- Merit::RankRules -->
<g id="node3" class="node"><title>Merit::RankRules</title>
<polygon fill="none" stroke="black" points="644.052,-896 644.052,-942 758.052,-942 758.052,-896 644.052,-896"/>
<text text-anchor="middle" x="701.052" y="-926.8" font-family="Times,serif" font-size="14.00">Merit::RankRules</text>
<polyline fill="none" stroke="black" points="644.052,-919 758.052,-919 "/>
<text text-anchor="middle" x="701.052" y="-903.8" font-family="Times,serif" font-size="14.00"> </text>
</g>
<!-- Merit::PointRules -->
<g id="node4" class="node"><title>Merit::PointRules</title>
<polygon fill="none" stroke="black" points="776.552,-896 776.552,-942 891.552,-942 891.552,-896 776.552,-896"/>
<text text-anchor="middle" x="834.052" y="-926.8" font-family="Times,serif" font-size="14.00">Merit::PointRules</text>
<polyline fill="none" stroke="black" points="776.552,-919 891.552,-919 "/>
<text text-anchor="middle" x="834.052" y="-903.8" font-family="Times,serif" font-size="14.00"> </text>
</g>
<!-- Merit::BadgeRules -->
<g id="node5" class="node"><title>Merit::BadgeRules</title>
<polygon fill="none" stroke="black" points="909.552,-896 909.552,-942 1028.55,-942 1028.55,-896 909.552,-896"/>
<text text-anchor="middle" x="969.052" y="-926.8" font-family="Times,serif" font-size="14.00">Merit::BadgeRules</text>
<polyline fill="none" stroke="black" points="909.552,-919 1028.55,-919 "/>
<text text-anchor="middle" x="969.052" y="-903.8" font-family="Times,serif" font-size="14.00"> </text>
</g>
<!-- Prompt -->
<g id="node6" class="node"><title>Prompt</title>
<path fill="none" stroke="black" d="M306.052,-0.5C306.052,-0.5 414.052,-0.5 414.052,-0.5 420.052,-0.5 426.052,-6.5 426.052,-12.5 426.052,-12.5 426.052,-109.5 426.052,-109.5 426.052,-115.5 420.052,-121.5 414.052,-121.5 414.052,-121.5 306.052,-121.5 306.052,-121.5 300.052,-121.5 294.052,-115.5 294.052,-109.5 294.052,-109.5 294.052,-12.5 294.052,-12.5 294.052,-6.5 300.052,-0.5 306.052,-0.5"/>
<text text-anchor="middle" x="360.052" y="-106.3" font-family="Times,serif" font-size="14.00">Prompt</text>
<polyline fill="none" stroke="black" points="294.052,-98.5 426.052,-98.5 "/>
<text text-anchor="start" x="302.052" y="-83.3" font-family="Times,serif" font-size="14.00">id :integer</text>
<text text-anchor="start" x="302.052" y="-68.3" font-family="Times,serif" font-size="14.00">user_id :integer</text>
<text text-anchor="start" x="302.052" y="-53.3" font-family="Times,serif" font-size="14.00">data :text</text>
<text text-anchor="start" x="302.052" y="-38.3" font-family="Times,serif" font-size="14.00">title :text</text>
<text text-anchor="start" x="302.052" y="-23.3" font-family="Times,serif" font-size="14.00">created_at :datetime</text>
<text text-anchor="start" x="302.052" y="-8.3" font-family="Times,serif" font-size="14.00">updated_at :datetime</text>
</g>
<!-- Project -->
<g id="node9" class="node"><title>Project</title>
<path fill="none" stroke="black" d="M278.052,-159C278.052,-159 386.052,-159 386.052,-159 392.052,-159 398.052,-165 398.052,-171 398.052,-171 398.052,-283 398.052,-283 398.052,-289 392.052,-295 386.052,-295 386.052,-295 278.052,-295 278.052,-295 272.052,-295 266.052,-289 266.052,-283 266.052,-283 266.052,-171 266.052,-171 266.052,-165 272.052,-159 278.052,-159"/>
<text text-anchor="middle" x="332.052" y="-279.8" font-family="Times,serif" font-size="14.00">Project</text>
<polyline fill="none" stroke="black" points="266.052,-272 398.052,-272 "/>
<text text-anchor="start" x="274.052" y="-256.8" font-family="Times,serif" font-size="14.00">id :integer</text>
<text text-anchor="start" x="274.052" y="-241.8" font-family="Times,serif" font-size="14.00">prompt_id :integer</text>
<text text-anchor="start" x="274.052" y="-226.8" font-family="Times,serif" font-size="14.00">title :string</text>
<text text-anchor="start" x="274.052" y="-211.8" font-family="Times,serif" font-size="14.00">body :string</text>
<text text-anchor="start" x="274.052" y="-196.8" font-family="Times,serif" font-size="14.00">user_id :integer</text>
<text text-anchor="start" x="274.052" y="-181.8" font-family="Times,serif" font-size="14.00">created_at :datetime</text>
<text text-anchor="start" x="274.052" y="-166.8" font-family="Times,serif" font-size="14.00">updated_at :datetime</text>
</g>
<!-- Prompt&#45;&gt;Project -->
<g id="edge5" class="edge"><title>Prompt&#45;&gt;Project</title>
<path fill="none" stroke="#f2501a" d="M355.153,-129.686C354.151,-136.041 353.073,-142.515 351.946,-148.948"/>
<ellipse fill="none" stroke="#f2501a" cx="355.772" cy="-125.664" rx="4.00001" ry="4.00001"/>
<polygon fill="#f2501a" stroke="#f2501a" points="351.941,-148.979 345.743,-158.026 351.056,-153.901 350.172,-158.822 350.172,-158.822 350.172,-158.822 351.056,-153.901 354.601,-159.617 351.941,-148.979 351.941,-148.979"/>
</g>
<!-- Role -->
<g id="node7" class="node"><title>Role</title>
<path fill="none" stroke="black" d="M192.052,-866C192.052,-866 300.052,-866 300.052,-866 306.052,-866 312.052,-872 312.052,-878 312.052,-878 312.052,-960 312.052,-960 312.052,-966 306.052,-972 300.052,-972 300.052,-972 192.052,-972 192.052,-972 186.052,-972 180.052,-966 180.052,-960 180.052,-960 180.052,-878 180.052,-878 180.052,-872 186.052,-866 192.052,-866"/>
<text text-anchor="middle" x="246.052" y="-956.8" font-family="Times,serif" font-size="14.00">Role</text>
<polyline fill="none" stroke="black" points="180.052,-949 312.052,-949 "/>
<text text-anchor="start" x="188.052" y="-933.8" font-family="Times,serif" font-size="14.00">id :integer</text>
<text text-anchor="start" x="188.052" y="-918.8" font-family="Times,serif" font-size="14.00">name :string</text>
<text text-anchor="start" x="188.052" y="-903.8" font-family="Times,serif" font-size="14.00">alias :string</text>
<text text-anchor="start" x="188.052" y="-888.8" font-family="Times,serif" font-size="14.00">created_at :datetime</text>
<text text-anchor="start" x="188.052" y="-873.8" font-family="Times,serif" font-size="14.00">updated_at :datetime</text>
</g>
<!-- User -->
<g id="node10" class="node"><title>User</title>
<path fill="none" stroke="black" d="M158.552,-332.5C158.552,-332.5 337.552,-332.5 337.552,-332.5 343.552,-332.5 349.552,-338.5 349.552,-344.5 349.552,-344.5 349.552,-801.5 349.552,-801.5 349.552,-807.5 343.552,-813.5 337.552,-813.5 337.552,-813.5 158.552,-813.5 158.552,-813.5 152.552,-813.5 146.552,-807.5 146.552,-801.5 146.552,-801.5 146.552,-344.5 146.552,-344.5 146.552,-338.5 152.552,-332.5 158.552,-332.5"/>
<text text-anchor="middle" x="248.052" y="-798.3" font-family="Times,serif" font-size="14.00">User</text>
<polyline fill="none" stroke="black" points="146.552,-790.5 349.552,-790.5 "/>
<text text-anchor="start" x="154.552" y="-775.3" font-family="Times,serif" font-size="14.00">id :integer</text>
<text text-anchor="start" x="154.552" y="-760.3" font-family="Times,serif" font-size="14.00">email :string</text>
<text text-anchor="start" x="154.552" y="-745.3" font-family="Times,serif" font-size="14.00">encrypted_password :string</text>
<text text-anchor="start" x="154.552" y="-730.3" font-family="Times,serif" font-size="14.00">reset_password_token :string</text>
<text text-anchor="start" x="154.552" y="-715.3" font-family="Times,serif" font-size="14.00">reset_password_sent_at :datetime</text>
<text text-anchor="start" x="154.552" y="-700.3" font-family="Times,serif" font-size="14.00">remember_created_at :datetime</text>
<text text-anchor="start" x="154.552" y="-685.3" font-family="Times,serif" font-size="14.00">num_prompts :integer</text>
<text text-anchor="start" x="154.552" y="-670.3" font-family="Times,serif" font-size="14.00">num_projects :integer</text>
<text text-anchor="start" x="154.552" y="-655.3" font-family="Times,serif" font-size="14.00">sign_in_count :integer</text>
<text text-anchor="start" x="154.552" y="-640.3" font-family="Times,serif" font-size="14.00">current_sign_in_at :datetime</text>
<text text-anchor="start" x="154.552" y="-625.3" font-family="Times,serif" font-size="14.00">last_sign_in_at :datetime</text>
<text text-anchor="start" x="154.552" y="-610.3" font-family="Times,serif" font-size="14.00">current_sign_in_ip :string</text>
<text text-anchor="start" x="154.552" y="-595.3" font-family="Times,serif" font-size="14.00">last_sign_in_ip :string</text>
<text text-anchor="start" x="154.552" y="-580.3" font-family="Times,serif" font-size="14.00">first_name :string</text>
<text text-anchor="start" x="154.552" y="-565.3" font-family="Times,serif" font-size="14.00">last_name :string</text>
<text text-anchor="start" x="154.552" y="-550.3" font-family="Times,serif" font-size="14.00">subdomain :string</text>
<text text-anchor="start" x="154.552" y="-535.3" font-family="Times,serif" font-size="14.00">username :string</text>
<text text-anchor="start" x="154.552" y="-520.3" font-family="Times,serif" font-size="14.00">skill :string</text>
<text text-anchor="start" x="154.552" y="-505.3" font-family="Times,serif" font-size="14.00">bio :text</text>
<text text-anchor="start" x="154.552" y="-490.3" font-family="Times,serif" font-size="14.00">color :string</text>
<text text-anchor="start" x="154.552" y="-475.3" font-family="Times,serif" font-size="14.00">analytics :text</text>
<text text-anchor="start" x="154.552" y="-460.3" font-family="Times,serif" font-size="14.00">typekit :text</text>
<text text-anchor="start" x="154.552" y="-445.3" font-family="Times,serif" font-size="14.00">created_at :datetime</text>
<text text-anchor="start" x="154.552" y="-430.3" font-family="Times,serif" font-size="14.00">updated_at :datetime</text>
<text text-anchor="start" x="154.552" y="-415.3" font-family="Times,serif" font-size="14.00">logo :string</text>
<text text-anchor="start" x="154.552" y="-400.3" font-family="Times,serif" font-size="14.00">is_enabled :boolean</text>
<text text-anchor="start" x="154.552" y="-385.3" font-family="Times,serif" font-size="14.00">external_domain :string</text>
<text text-anchor="start" x="154.552" y="-370.3" font-family="Times,serif" font-size="14.00">external_resource :string</text>
<text text-anchor="start" x="154.552" y="-355.3" font-family="Times,serif" font-size="14.00">sash_id :integer</text>
<text text-anchor="start" x="154.552" y="-340.3" font-family="Times,serif" font-size="14.00">level :integer</text>
</g>
<!-- Role&#45;&gt;User -->
<g id="edge7" class="edge"><title>Role&#45;&gt;User</title>
<path fill="none" stroke="#572e52" d="M246.416,-855.418C246.472,-845.695 246.533,-835.174 246.598,-824.105"/>
<polygon fill="#572e52" stroke="#572e52" points="246.414,-855.754 241.856,-865.728 246.385,-860.754 246.356,-865.754 246.356,-865.754 246.356,-865.754 246.385,-860.754 250.855,-865.78 246.414,-855.754 246.414,-855.754"/>
<polygon fill="#572e52" stroke="#572e52" points="246.599,-823.793 251.158,-813.819 246.629,-818.793 246.658,-813.793 246.658,-813.793 246.658,-813.793 246.629,-818.793 242.158,-813.767 246.599,-823.793 246.599,-823.793"/>
</g>
<!-- Comment -->
<g id="node8" class="node"><title>Comment</title>
<path fill="none" stroke="black" d="M156.052,-0.5C156.052,-0.5 264.052,-0.5 264.052,-0.5 270.052,-0.5 276.052,-6.5 276.052,-12.5 276.052,-12.5 276.052,-109.5 276.052,-109.5 276.052,-115.5 270.052,-121.5 264.052,-121.5 264.052,-121.5 156.052,-121.5 156.052,-121.5 150.052,-121.5 144.052,-115.5 144.052,-109.5 144.052,-109.5 144.052,-12.5 144.052,-12.5 144.052,-6.5 150.052,-0.5 156.052,-0.5"/>
<text text-anchor="middle" x="210.052" y="-106.3" font-family="Times,serif" font-size="14.00">Comment</text>
<polyline fill="none" stroke="black" points="144.052,-98.5 276.052,-98.5 "/>
<text text-anchor="start" x="152.052" y="-83.3" font-family="Times,serif" font-size="14.00">id :integer</text>
<text text-anchor="start" x="152.052" y="-68.3" font-family="Times,serif" font-size="14.00">user_id :integer</text>
<text text-anchor="start" x="152.052" y="-53.3" font-family="Times,serif" font-size="14.00">text :text</text>
<text text-anchor="start" x="152.052" y="-38.3" font-family="Times,serif" font-size="14.00">project_id :integer</text>
<text text-anchor="start" x="152.052" y="-23.3" font-family="Times,serif" font-size="14.00">created_at :datetime</text>
<text text-anchor="start" x="152.052" y="-8.3" font-family="Times,serif" font-size="14.00">updated_at :datetime</text>
</g>
<!-- Project&#45;&gt;Prompt -->
<g id="edge10" class="edge"><title>Project&#45;&gt;Prompt</title>
<path fill="none" stroke="#176cb2" d="M338.178,-150.699C339.329,-143.712 340.557,-136.661 341.826,-129.749"/>
<ellipse fill="none" stroke="#176cb2" cx="337.506" cy="-154.873" rx="4.00001" ry="4.00001"/>
<ellipse fill="#176cb2" stroke="#176cb2" cx="342.597" cy="-125.642" rx="4.00001" ry="4.00001"/>
</g>
<!-- Project&#45;&gt;Comment -->
<g id="edge11" class="edge"><title>Project&#45;&gt;Comment</title>
<path fill="none" stroke="#609f56" d="M277.119,-152.156C271.67,-144.831 266.155,-137.418 260.752,-130.155"/>
<ellipse fill="none" stroke="#609f56" cx="279.69" cy="-155.612" rx="4.00002" ry="4.00002"/>
<polygon fill="#609f56" stroke="#609f56" points="260.439,-129.734 258.081,-119.025 257.455,-125.722 254.471,-121.711 254.471,-121.711 254.471,-121.711 257.455,-125.722 250.86,-124.397 260.439,-129.734 260.439,-129.734"/>
</g>
<!-- User&#45;&gt;Profile -->
<g id="edge13" class="edge"><title>User&#45;&gt;Profile</title>
<path fill="none" stroke="#3bf318" d="M173.191,-324.382C168.361,-308.408 163.86,-293.52 159.91,-280.453"/>
<ellipse fill="none" stroke="#3bf318" cx="174.38" cy="-328.316" rx="4.00001" ry="4.00001"/>
<ellipse fill="#3bf318" stroke="#3bf318" cx="158.681" cy="-276.388" rx="4.00001" ry="4.00001"/>
</g>
<!-- User&#45;&gt;Comment -->
<g id="edge15" class="edge"><title>User&#45;&gt;Comment</title>
<path fill="none" stroke="#13d79a" d="M231.665,-324.418C227.77,-269.599 223.459,-211.815 219.052,-158 218.352,-149.454 217.572,-140.485 216.772,-131.603"/>
<ellipse fill="none" stroke="#13d79a" cx="231.954" cy="-328.494" rx="4" ry="4"/>
<polygon fill="#13d79a" stroke="#13d79a" points="216.771,-131.599 220.344,-121.232 216.317,-126.62 215.863,-121.641 215.863,-121.641 215.863,-121.641 216.317,-126.62 211.382,-122.05 216.771,-131.599 216.771,-131.599"/>
</g>
<!-- User&#45;&gt;Project -->
<g id="edge14" class="edge"><title>User&#45;&gt;Project</title>
<path fill="none" stroke="#2bb8c2" d="M308.548,-324.252C310.146,-317.709 311.699,-311.349 313.195,-305.223"/>
<ellipse fill="none" stroke="#2bb8c2" cx="307.57" cy="-328.259" rx="4.00001" ry="4.00001"/>
<polygon fill="#2bb8c2" stroke="#2bb8c2" points="313.285,-304.856 320.028,-296.209 314.471,-299.999 315.657,-295.142 315.657,-295.142 315.657,-295.142 314.471,-299.999 311.285,-294.074 313.285,-304.856 313.285,-304.856"/>
</g>
<!-- Mercury::Image -->
<g id="node11" class="node"><title>Mercury::Image</title>
<path fill="none" stroke="black" d="M466.052,-851C466.052,-851 614.052,-851 614.052,-851 620.052,-851 626.052,-857 626.052,-863 626.052,-863 626.052,-975 626.052,-975 626.052,-981 620.052,-987 614.052,-987 614.052,-987 466.052,-987 466.052,-987 460.052,-987 454.052,-981 454.052,-975 454.052,-975 454.052,-863 454.052,-863 454.052,-857 460.052,-851 466.052,-851"/>
<text text-anchor="middle" x="540.052" y="-971.8" font-family="Times,serif" font-size="14.00">Mercury::Image</text>
<polyline fill="none" stroke="black" points="454.052,-964 626.052,-964 "/>
<text text-anchor="start" x="462.052" y="-948.8" font-family="Times,serif" font-size="14.00">id :integer</text>
<text text-anchor="start" x="462.052" y="-933.8" font-family="Times,serif" font-size="14.00">image_file_name :string</text>
<text text-anchor="start" x="462.052" y="-918.8" font-family="Times,serif" font-size="14.00">image_content_type :string</text>
<text text-anchor="start" x="462.052" y="-903.8" font-family="Times,serif" font-size="14.00">image_file_size :integer</text>
<text text-anchor="start" x="462.052" y="-888.8" font-family="Times,serif" font-size="14.00">image_updated_at :datetime</text>
<text text-anchor="start" x="462.052" y="-873.8" font-family="Times,serif" font-size="14.00">created_at :datetime</text>
<text text-anchor="start" x="462.052" y="-858.8" font-family="Times,serif" font-size="14.00">updated_at :datetime</text>
</g>
<!-- ActiveRecord::Base -->
<g id="node12" class="node"><title>ActiveRecord::Base</title>
<ellipse fill="none" stroke="black" cx="340.052" cy="-1063" rx="82.3139" ry="18"/>
<text text-anchor="middle" x="340.052" y="-1059.3" font-family="Times,serif" font-size="14.00">ActiveRecord::Base</text>
</g>
<!-- ActiveRecord::Base&#45;&gt;Profile -->
<g id="edge1" class="edge"><title>ActiveRecord::Base&#45;&gt;Profile</title>
<path fill="none" stroke="black" d="M302.969,-1046.79C254.576,-1026.79 175.483,-993.53 171.052,-988 -1.90649,-772.148 90.1371,-400.604 129.281,-272.751"/>
</g>
<!-- ActiveRecord::Base&#45;&gt;Prompt -->
<g id="edge6" class="edge"><title>ActiveRecord::Base&#45;&gt;Prompt</title>
<path fill="none" stroke="black" d="M347.461,-1045.02C353.552,-1030.26 361.841,-1008.13 366.052,-988 381.931,-912.094 374.07,-891.389 379.052,-814 393.864,-583.918 400.827,-526.474 407.052,-296 408.708,-234.689 420.893,-217.751 407.052,-158 404.225,-145.797 399.621,-133.355 394.374,-121.649"/>
</g>
<!-- ActiveRecord::Base&#45;&gt;Role -->
<g id="edge8" class="edge"><title>ActiveRecord::Base&#45;&gt;Role</title>
<path fill="none" stroke="black" d="M328.9,-1045.15C317.033,-1027.23 297.661,-997.964 280.633,-972.239"/>
</g>
<!-- ActiveRecord::Base&#45;&gt;Comment -->
<g id="edge9" class="edge"><title>ActiveRecord::Base&#45;&gt;Comment</title>
<path fill="none" stroke="black" d="M305.62,-1046.49C288.281,-1039.06 266.797,-1030.4 247.052,-1024 182.65,-1003.14 145.679,-1037.08 99.0518,-988 44.8365,-930.936 73.4175,-892.366 66.0518,-814 38.7685,-523.721 -69.4834,-414.543 69.0518,-158 85.3042,-127.903 115.593,-105.423 143.944,-89.8124"/>
</g>
<!-- ActiveRecord::Base&#45;&gt;Project -->
<g id="edge12" class="edge"><title>ActiveRecord::Base&#45;&gt;Project</title>
<path fill="none" stroke="black" d="M341.723,-1044.89C345.559,-1004.66 354.901,-900.928 358.052,-814 365.811,-599.918 384.226,-544.617 358.052,-332 356.574,-319.993 354.17,-307.379 351.406,-295.24"/>
</g>
<!-- ActiveRecord::Base&#45;&gt;User -->
<g id="edge16" class="edge"><title>ActiveRecord::Base&#45;&gt;User</title>
<path fill="none" stroke="black" d="M339.497,-1044.83C338.112,-1008.59 333.653,-921.699 321.052,-850 318.95,-838.04 316.581,-825.841 314.017,-813.559"/>
</g>
<!-- ActiveRecord::Base&#45;&gt;Mercury::Image -->
<g id="edge17" class="edge"><title>ActiveRecord::Base&#45;&gt;Mercury::Image</title>
<path fill="none" stroke="black" d="M362.994,-1045.71C385.26,-1029.9 420.456,-1004.91 453.624,-981.364"/>
</g>
<!-- Object -->
<g id="node13" class="node"><title>Object</title>
<ellipse fill="none" stroke="black" cx="834.052" cy="-1063" rx="35.1455" ry="18"/>
<text text-anchor="middle" x="834.052" y="-1059.3" font-family="Times,serif" font-size="14.00">Object</text>
</g>
<!-- Object&#45;&gt;Merit::RankRules -->
<g id="edge2" class="edge"><title>Object&#45;&gt;Merit::RankRules</title>
<path fill="none" stroke="black" d="M819.565,-1046.53C795.934,-1021.3 749.005,-971.198 721.828,-942.182"/>
</g>
<!-- Object&#45;&gt;Merit::PointRules -->
<g id="edge3" class="edge"><title>Object&#45;&gt;Merit::PointRules</title>
<path fill="none" stroke="black" d="M834.052,-1044.87C834.052,-1019.2 834.052,-970.739 834.052,-942.327"/>
</g>
<!-- Object&#45;&gt;Merit::BadgeRules -->
<g id="edge4" class="edge"><title>Object&#45;&gt;Merit::BadgeRules</title>
<path fill="none" stroke="black" d="M848.756,-1046.53C872.743,-1021.3 920.377,-971.198 947.963,-942.182"/>
</g>
</g>
</svg>
