<?xml version="1.0" encoding="UTF-8" standalone="no"?>
<!DOCTYPE svg PUBLIC "-//W3C//DTD SVG 1.1//EN"
 "http://www.w3.org/Graphics/SVG/1.1/DTD/svg11.dtd">
<!-- Generated by graphviz version 2.36.0 (20140111.2315)
 -->
<!-- Title: models_diagram Pages: 1 -->
<svg width="678pt" height="880pt"
 viewBox="0.00 0.00 678.00 880.00" xmlns="http://www.w3.org/2000/svg" xmlns:xlink="http://www.w3.org/1999/xlink">
<g id="graph0" class="graph" transform="scale(1 1) rotate(0) translate(4 876)">
<title>models_diagram</title>
<polygon fill="white" stroke="none" points="-4,4 -4,-876 674,-876 674,4 -4,4"/>
<!-- _diagram_info -->
<g id="node1" class="node"><title>_diagram_info</title>
<text text-anchor="start" x="8" y="-857.6" font-family="Times,serif" font-size="13.00">Models diagram</text>
<text text-anchor="start" x="8" y="-843.6" font-family="Times,serif" font-size="13.00">Date: Apr 03 2014 &#45; 12:16</text>
<text text-anchor="start" x="8" y="-829.6" font-family="Times,serif" font-size="13.00">Migration version: 20140402194048</text>
<text text-anchor="start" x="8" y="-815.6" font-family="Times,serif" font-size="13.00">Generated by RailRoady 1.1.1</text>
<text text-anchor="start" x="8" y="-801.6" font-family="Times,serif" font-size="13.00">http://railroady.prestonlee.com</text>
</g>
<!-- Role -->
<g id="node2" class="node"><title>Role</title>
<path fill="none" stroke="black" d="M46,-606C46,-606 154,-606 154,-606 160,-606 166,-612 166,-618 166,-618 166,-700 166,-700 166,-706 160,-712 154,-712 154,-712 46,-712 46,-712 40,-712 34,-706 34,-700 34,-700 34,-618 34,-618 34,-612 40,-606 46,-606"/>
<text text-anchor="middle" x="100" y="-696.8" font-family="Times,serif" font-size="14.00">Role</text>
<polyline fill="none" stroke="black" points="34,-689 166,-689 "/>
<text text-anchor="start" x="42" y="-673.8" font-family="Times,serif" font-size="14.00">id :integer</text>
<text text-anchor="start" x="42" y="-658.8" font-family="Times,serif" font-size="14.00">name :string</text>
<text text-anchor="start" x="42" y="-643.8" font-family="Times,serif" font-size="14.00">alias :string</text>
<text text-anchor="start" x="42" y="-628.8" font-family="Times,serif" font-size="14.00">created_at :datetime</text>
<text text-anchor="start" x="42" y="-613.8" font-family="Times,serif" font-size="14.00">updated_at :datetime</text>
</g>
<!-- User -->
<g id="node4" class="node"><title>User</title>
<path fill="none" stroke="black" d="M85.5,-72.5C85.5,-72.5 264.5,-72.5 264.5,-72.5 270.5,-72.5 276.5,-78.5 276.5,-84.5 276.5,-84.5 276.5,-511.5 276.5,-511.5 276.5,-517.5 270.5,-523.5 264.5,-523.5 264.5,-523.5 85.5,-523.5 85.5,-523.5 79.5,-523.5 73.5,-517.5 73.5,-511.5 73.5,-511.5 73.5,-84.5 73.5,-84.5 73.5,-78.5 79.5,-72.5 85.5,-72.5"/>
<text text-anchor="middle" x="175" y="-508.3" font-family="Times,serif" font-size="14.00">User</text>
<polyline fill="none" stroke="black" points="73.5,-500.5 276.5,-500.5 "/>
<text text-anchor="start" x="81.5" y="-485.3" font-family="Times,serif" font-size="14.00">id :integer</text>
<text text-anchor="start" x="81.5" y="-470.3" font-family="Times,serif" font-size="14.00">email :string</text>
<text text-anchor="start" x="81.5" y="-455.3" font-family="Times,serif" font-size="14.00">encrypted_password :string</text>
<text text-anchor="start" x="81.5" y="-440.3" font-family="Times,serif" font-size="14.00">reset_password_token :string</text>
<text text-anchor="start" x="81.5" y="-425.3" font-family="Times,serif" font-size="14.00">reset_password_sent_at :datetime</text>
<text text-anchor="start" x="81.5" y="-410.3" font-family="Times,serif" font-size="14.00">remember_created_at :datetime</text>
<text text-anchor="start" x="81.5" y="-395.3" font-family="Times,serif" font-size="14.00">sign_in_count :integer</text>
<text text-anchor="start" x="81.5" y="-380.3" font-family="Times,serif" font-size="14.00">current_sign_in_at :datetime</text>
<text text-anchor="start" x="81.5" y="-365.3" font-family="Times,serif" font-size="14.00">last_sign_in_at :datetime</text>
<text text-anchor="start" x="81.5" y="-350.3" font-family="Times,serif" font-size="14.00">current_sign_in_ip :string</text>
<text text-anchor="start" x="81.5" y="-335.3" font-family="Times,serif" font-size="14.00">last_sign_in_ip :string</text>
<text text-anchor="start" x="81.5" y="-320.3" font-family="Times,serif" font-size="14.00">first_name :string</text>
<text text-anchor="start" x="81.5" y="-305.3" font-family="Times,serif" font-size="14.00">last_name :string</text>
<text text-anchor="start" x="81.5" y="-290.3" font-family="Times,serif" font-size="14.00">subdomain :string</text>
<text text-anchor="start" x="81.5" y="-275.3" font-family="Times,serif" font-size="14.00">username :string</text>
<text text-anchor="start" x="81.5" y="-260.3" font-family="Times,serif" font-size="14.00">skill :string</text>
<text text-anchor="start" x="81.5" y="-245.3" font-family="Times,serif" font-size="14.00">bio :text</text>
<text text-anchor="start" x="81.5" y="-230.3" font-family="Times,serif" font-size="14.00">color :string</text>
<text text-anchor="start" x="81.5" y="-215.3" font-family="Times,serif" font-size="14.00">analytics :text</text>
<text text-anchor="start" x="81.5" y="-200.3" font-family="Times,serif" font-size="14.00">typekit :text</text>
<text text-anchor="start" x="81.5" y="-185.3" font-family="Times,serif" font-size="14.00">created_at :datetime</text>
<text text-anchor="start" x="81.5" y="-170.3" font-family="Times,serif" font-size="14.00">updated_at :datetime</text>
<text text-anchor="start" x="81.5" y="-155.3" font-family="Times,serif" font-size="14.00">logo :string</text>
<text text-anchor="start" x="81.5" y="-140.3" font-family="Times,serif" font-size="14.00">external_link :string</text>
<text text-anchor="start" x="81.5" y="-125.3" font-family="Times,serif" font-size="14.00">is_enabled :boolean</text>
<text text-anchor="start" x="81.5" y="-110.3" font-family="Times,serif" font-size="14.00">external_domain :string</text>
<text text-anchor="start" x="81.5" y="-95.3" font-family="Times,serif" font-size="14.00">twitter :string</text>
<text text-anchor="start" x="81.5" y="-80.3" font-family="Times,serif" font-size="14.00">external_resource :string</text>
</g>
<!-- Role&#45;&gt;User -->
<g id="edge1" class="edge"><title>Role&#45;&gt;User</title>
<path fill="none" stroke="#369bab" d="M112.997,-595.789C116.825,-577.464 121.26,-556.238 125.962,-533.728"/>
<polygon fill="#369bab" stroke="#369bab" points="112.951,-596.01 106.501,-604.878 111.928,-600.904 110.906,-605.798 110.906,-605.798 110.906,-605.798 111.928,-600.904 115.311,-606.719 112.951,-596.01 112.951,-596.01"/>
<polygon fill="#369bab" stroke="#369bab" points="126.021,-533.444 132.471,-524.576 127.044,-528.55 128.066,-523.656 128.066,-523.656 128.066,-523.656 127.044,-528.55 123.661,-522.735 126.021,-533.444 126.021,-533.444"/>
</g>
<!-- Project -->
<g id="node3" class="node"><title>Project</title>
<path fill="none" stroke="black" d="M196,-621C196,-621 304,-621 304,-621 310,-621 316,-627 316,-633 316,-633 316,-685 316,-685 316,-691 310,-697 304,-697 304,-697 196,-697 196,-697 190,-697 184,-691 184,-685 184,-685 184,-633 184,-633 184,-627 190,-621 196,-621"/>
<text text-anchor="middle" x="250" y="-681.8" font-family="Times,serif" font-size="14.00">Project</text>
<polyline fill="none" stroke="black" points="184,-674 316,-674 "/>
<text text-anchor="start" x="192" y="-658.8" font-family="Times,serif" font-size="14.00">id :integer</text>
<text text-anchor="start" x="192" y="-643.8" font-family="Times,serif" font-size="14.00">created_at :datetime</text>
<text text-anchor="start" x="192" y="-628.8" font-family="Times,serif" font-size="14.00">updated_at :datetime</text>
</g>
<!-- Post -->
<g id="node9" class="node"><title>Post</title>
<ellipse fill="none" stroke="black" cx="175" cy="-18" rx="27" ry="18"/>
<text text-anchor="middle" x="175" y="-14.3" font-family="Times,serif" font-size="14.00">Post</text>
</g>
<!-- User&#45;&gt;Post -->
<g id="edge4" class="edge"><title>User&#45;&gt;Post</title>
<path fill="none" stroke="#7045a6" d="M175,-64.0247C175,-57.5043 175,-51.5028 175,-46.151"/>
<ellipse fill="none" stroke="#7045a6" cx="175" cy="-68.2723" rx="4" ry="4"/>
<polygon fill="#7045a6" stroke="#7045a6" points="175,-46.1199 179.5,-36.1199 175,-41.1199 175,-36.1199 175,-36.1199 175,-36.1199 175,-41.1199 170.5,-36.12 175,-46.1199 175,-46.1199"/>
</g>
<!-- Ckeditor::AttachmentFile -->
<g id="node5" class="node"><title>Ckeditor::AttachmentFile</title>
<path fill="none" stroke="black" d="M344,-200C344,-200 482,-200 482,-200 488,-200 494,-206 494,-212 494,-212 494,-384 494,-384 494,-390 488,-396 482,-396 482,-396 344,-396 344,-396 338,-396 332,-390 332,-384 332,-384 332,-212 332,-212 332,-206 338,-200 344,-200"/>
<text text-anchor="middle" x="413" y="-380.8" font-family="Times,serif" font-size="14.00">Ckeditor::AttachmentFile</text>
<polyline fill="none" stroke="black" points="332,-373 494,-373 "/>
<text text-anchor="start" x="340" y="-357.8" font-family="Times,serif" font-size="14.00">id :integer</text>
<text text-anchor="start" x="340" y="-342.8" font-family="Times,serif" font-size="14.00">data_file_name :string</text>
<text text-anchor="start" x="340" y="-327.8" font-family="Times,serif" font-size="14.00">data_content_type :string</text>
<text text-anchor="start" x="340" y="-312.8" font-family="Times,serif" font-size="14.00">data_file_size :integer</text>
<text text-anchor="start" x="340" y="-297.8" font-family="Times,serif" font-size="14.00">assetable_id :integer</text>
<text text-anchor="start" x="340" y="-282.8" font-family="Times,serif" font-size="14.00">assetable_type :string</text>
<text text-anchor="start" x="340" y="-267.8" font-family="Times,serif" font-size="14.00">type :string</text>
<text text-anchor="start" x="340" y="-252.8" font-family="Times,serif" font-size="14.00">width :integer</text>
<text text-anchor="start" x="340" y="-237.8" font-family="Times,serif" font-size="14.00">height :integer</text>
<text text-anchor="start" x="340" y="-222.8" font-family="Times,serif" font-size="14.00">created_at :datetime</text>
<text text-anchor="start" x="340" y="-207.8" font-family="Times,serif" font-size="14.00">updated_at :datetime</text>
</g>
<!-- Ckeditor::Picture -->
<g id="node6" class="node"><title>Ckeditor::Picture</title>
<path fill="none" stroke="black" d="M524,-200C524,-200 658,-200 658,-200 664,-200 670,-206 670,-212 670,-212 670,-384 670,-384 670,-390 664,-396 658,-396 658,-396 524,-396 524,-396 518,-396 512,-390 512,-384 512,-384 512,-212 512,-212 512,-206 518,-200 524,-200"/>
<text text-anchor="middle" x="591" y="-380.8" font-family="Times,serif" font-size="14.00">Ckeditor::Picture</text>
<polyline fill="none" stroke="black" points="512,-373 670,-373 "/>
<text text-anchor="start" x="520" y="-357.8" font-family="Times,serif" font-size="14.00">id :integer</text>
<text text-anchor="start" x="520" y="-342.8" font-family="Times,serif" font-size="14.00">data_file_name :string</text>
<text text-anchor="start" x="520" y="-327.8" font-family="Times,serif" font-size="14.00">data_content_type :string</text>
<text text-anchor="start" x="520" y="-312.8" font-family="Times,serif" font-size="14.00">data_file_size :integer</text>
<text text-anchor="start" x="520" y="-297.8" font-family="Times,serif" font-size="14.00">assetable_id :integer</text>
<text text-anchor="start" x="520" y="-282.8" font-family="Times,serif" font-size="14.00">assetable_type :string</text>
<text text-anchor="start" x="520" y="-267.8" font-family="Times,serif" font-size="14.00">type :string</text>
<text text-anchor="start" x="520" y="-252.8" font-family="Times,serif" font-size="14.00">width :integer</text>
<text text-anchor="start" x="520" y="-237.8" font-family="Times,serif" font-size="14.00">height :integer</text>
<text text-anchor="start" x="520" y="-222.8" font-family="Times,serif" font-size="14.00">created_at :datetime</text>
<text text-anchor="start" x="520" y="-207.8" font-family="Times,serif" font-size="14.00">updated_at :datetime</text>
</g>
<!-- Ckeditor::Asset -->
<g id="node7" class="node"><title>Ckeditor::Asset</title>
<path fill="none" stroke="black" d="M384,-561C384,-561 518,-561 518,-561 524,-561 530,-567 530,-573 530,-573 530,-745 530,-745 530,-751 524,-757 518,-757 518,-757 384,-757 384,-757 378,-757 372,-751 372,-745 372,-745 372,-573 372,-573 372,-567 378,-561 384,-561"/>
<text text-anchor="middle" x="451" y="-741.8" font-family="Times,serif" font-size="14.00">Ckeditor::Asset</text>
<polyline fill="none" stroke="black" points="372,-734 530,-734 "/>
<text text-anchor="start" x="380" y="-718.8" font-family="Times,serif" font-size="14.00">id :integer</text>
<text text-anchor="start" x="380" y="-703.8" font-family="Times,serif" font-size="14.00">data_file_name :string</text>
<text text-anchor="start" x="380" y="-688.8" font-family="Times,serif" font-size="14.00">data_content_type :string</text>
<text text-anchor="start" x="380" y="-673.8" font-family="Times,serif" font-size="14.00">data_file_size :integer</text>
<text text-anchor="start" x="380" y="-658.8" font-family="Times,serif" font-size="14.00">assetable_id :integer</text>
<text text-anchor="start" x="380" y="-643.8" font-family="Times,serif" font-size="14.00">assetable_type :string</text>
<text text-anchor="start" x="380" y="-628.8" font-family="Times,serif" font-size="14.00">type :string</text>
<text text-anchor="start" x="380" y="-613.8" font-family="Times,serif" font-size="14.00">width :integer</text>
<text text-anchor="start" x="380" y="-598.8" font-family="Times,serif" font-size="14.00">height :integer</text>
<text text-anchor="start" x="380" y="-583.8" font-family="Times,serif" font-size="14.00">created_at :datetime</text>
<text text-anchor="start" x="380" y="-568.8" font-family="Times,serif" font-size="14.00">updated_at :datetime</text>
</g>
<!-- Ckeditor::Asset&#45;&gt;Ckeditor::AttachmentFile -->
<g id="edge6" class="edge"><title>Ckeditor::Asset&#45;&gt;Ckeditor::AttachmentFile</title>
<path fill="none" stroke="black" d="M440.717,-560.849C435.31,-509.766 428.7,-447.323 423.292,-396.228"/>
</g>
<!-- Ckeditor::Asset&#45;&gt;Ckeditor::Picture -->
<g id="edge7" class="edge"><title>Ckeditor::Asset&#45;&gt;Ckeditor::Picture</title>
<path fill="none" stroke="black" d="M488.886,-560.849C508.807,-509.766 533.158,-447.323 553.084,-396.228"/>
</g>
<!-- ActiveRecord::Base -->
<g id="node8" class="node"><title>ActiveRecord::Base</title>
<ellipse fill="none" stroke="black" cx="297" cy="-833" rx="82.3139" ry="18"/>
<text text-anchor="middle" x="297" y="-829.3" font-family="Times,serif" font-size="14.00">ActiveRecord::Base</text>
</g>
<!-- ActiveRecord::Base&#45;&gt;Role -->
<g id="edge2" class="edge"><title>ActiveRecord::Base&#45;&gt;Role</title>
<path fill="none" stroke="black" d="M264.222,-816.406C238.306,-803.112 202.102,-782.322 175,-758 160.091,-744.62 146.068,-727.941 134.273,-712.158"/>
</g>
<!-- ActiveRecord::Base&#45;&gt;Project -->
<g id="edge3" class="edge"><title>ActiveRecord::Base&#45;&gt;Project</title>
<path fill="none" stroke="black" d="M292.322,-814.879C284.868,-787.603 270.125,-733.65 260.163,-697.192"/>
</g>
<!-- ActiveRecord::Base&#45;&gt;User -->
<g id="edge5" class="edge"><title>ActiveRecord::Base&#45;&gt;User</title>
<path fill="none" stroke="black" d="M305.52,-814.87C312.318,-800.19 321.294,-778.268 325,-758 340.829,-671.435 347.692,-645.024 325,-560 314.522,-520.74 296.572,-481.253 276.656,-445.297"/>
</g>
<!-- ActiveRecord::Base&#45;&gt;Ckeditor::Asset -->
<g id="edge8" class="edge"><title>ActiveRecord::Base&#45;&gt;Ckeditor::Asset</title>
<path fill="none" stroke="black" d="M312.047,-815.195C326.351,-799.218 349.029,-773.89 371.95,-748.29"/>
</g>
</g>
</svg>
