<?xml version="1.0" encoding="UTF-8" standalone="no"?>
<!DOCTYPE svg PUBLIC "-//W3C//DTD SVG 1.1//EN"
 "http://www.w3.org/Graphics/SVG/1.1/DTD/svg11.dtd">
<!-- Generated by graphviz version 2.36.0 (20140111.2315)
 -->
<!-- Title: models_diagram Pages: 1 -->
<svg width="785pt" height="374pt"
 viewBox="0.00 0.00 785.00 374.00" xmlns="http://www.w3.org/2000/svg" xmlns:xlink="http://www.w3.org/1999/xlink">
<g id="graph0" class="graph" transform="scale(1 1) rotate(0) translate(4 370)">
<title>models_diagram</title>
<polygon fill="white" stroke="none" points="-4,4 -4,-370 781,-370 781,4 -4,4"/>
<!-- _diagram_info -->
<g id="node1" class="node"><title>_diagram_info</title>
<text text-anchor="start" x="8" y="-351.6" font-family="Times,serif" font-size="13.00">Models diagram</text>
<text text-anchor="start" x="8" y="-337.6" font-family="Times,serif" font-size="13.00">Date: Apr 02 2014 &#45; 10:02</text>
<text text-anchor="start" x="8" y="-323.6" font-family="Times,serif" font-size="13.00">Migration version: 20140401201249</text>
<text text-anchor="start" x="8" y="-309.6" font-family="Times,serif" font-size="13.00">Generated by RailRoady 1.1.1</text>
<text text-anchor="start" x="8" y="-295.6" font-family="Times,serif" font-size="13.00">http://railroady.prestonlee.com</text>
</g>
<!-- Role -->
<g id="node2" class="node"><title>Role</title>
<ellipse fill="none" stroke="black" cx="183" cy="-234" rx="26.949" ry="18"/>
<text text-anchor="middle" x="183" y="-230.3" font-family="Times,serif" font-size="14.00">Role</text>
</g>
<!-- User -->
<g id="node7" class="node"><title>User</title>
<ellipse fill="none" stroke="black" cx="184" cy="-162" rx="27.4223" ry="18"/>
<text text-anchor="middle" x="184" y="-158.3" font-family="Times,serif" font-size="14.00">User</text>
</g>
<!-- Role&#45;&gt;User -->
<g id="edge1" class="edge"><title>Role&#45;&gt;User</title>
<path fill="none" stroke="#59487c" d="M183.39,-205.665C183.464,-200.552 183.54,-195.21 183.613,-190.104"/>
<polygon fill="#59487c" stroke="#59487c" points="183.39,-205.698 178.748,-215.632 183.319,-210.697 183.247,-215.697 183.247,-215.697 183.247,-215.697 183.319,-210.697 187.747,-215.761 183.39,-205.698 183.39,-205.698"/>
<polygon fill="#59487c" stroke="#59487c" points="183.613,-190.103 188.255,-180.169 183.684,-185.104 183.756,-180.104 183.756,-180.104 183.756,-180.104 183.684,-185.104 179.256,-180.04 183.613,-190.103 183.613,-190.103"/>
</g>
<!-- Ability -->
<g id="node3" class="node"><title>Ability</title>
<polygon fill="none" stroke="black" points="695.5,-252 640.5,-252 640.5,-216 695.5,-216 695.5,-252"/>
<text text-anchor="middle" x="668" y="-230.3" font-family="Times,serif" font-size="14.00">Ability</text>
</g>
<!-- Post -->
<g id="node4" class="node"><title>Post</title>
<ellipse fill="none" stroke="black" cx="156" cy="-90" rx="27" ry="18"/>
<text text-anchor="middle" x="156" y="-86.3" font-family="Times,serif" font-size="14.00">Post</text>
</g>
<!-- PostsImage -->
<g id="node12" class="node"><title>PostsImage</title>
<ellipse fill="none" stroke="black" cx="156" cy="-18" rx="51.4931" ry="18"/>
<text text-anchor="middle" x="156" y="-14.3" font-family="Times,serif" font-size="14.00">PostsImage</text>
</g>
<!-- Post&#45;&gt;PostsImage -->
<g id="edge4" class="edge"><title>Post&#45;&gt;PostsImage</title>
<path fill="none" stroke="#e78eec" d="M156,-63.6398C156,-58.0629 156,-52.1319 156,-46.4761"/>
<ellipse fill="none" stroke="#e78eec" cx="156" cy="-67.6966" rx="4" ry="4"/>
<polygon fill="#e78eec" stroke="#e78eec" points="156,-46.1043 160.5,-36.1043 156,-41.1043 156,-36.1043 156,-36.1043 156,-36.1043 156,-41.1043 151.5,-36.1044 156,-46.1043 156,-46.1043"/>
</g>
<!-- Message -->
<g id="node5" class="node"><title>Message</title>
<polygon fill="none" stroke="black" points="777.25,-252 714.75,-252 714.75,-216 777.25,-216 777.25,-252"/>
<text text-anchor="middle" x="746" y="-230.3" font-family="Times,serif" font-size="14.00">Message</text>
</g>
<!-- Project -->
<g id="node6" class="node"><title>Project</title>
<ellipse fill="none" stroke="black" cx="265" cy="-234" rx="36.096" ry="18"/>
<text text-anchor="middle" x="265" y="-230.3" font-family="Times,serif" font-size="14.00">Project</text>
</g>
<!-- User&#45;&gt;Post -->
<g id="edge8" class="edge"><title>User&#45;&gt;Post</title>
<path fill="none" stroke="#51fc9f" d="M174.38,-136.95C171.828,-130.57 169.061,-123.651 166.466,-117.166"/>
<ellipse fill="none" stroke="#51fc9f" cx="175.879" cy="-140.697" rx="4.00001" ry="4.00001"/>
<polygon fill="#51fc9f" stroke="#51fc9f" points="166.302,-116.755 166.766,-105.799 164.445,-112.112 162.588,-107.47 162.588,-107.47 162.588,-107.47 164.445,-112.112 158.41,-109.141 166.302,-116.755 166.302,-116.755"/>
</g>
<!-- PicturesPost -->
<g id="node8" class="node"><title>PicturesPost</title>
<ellipse fill="none" stroke="black" cx="413" cy="-234" rx="55.3436" ry="18"/>
<text text-anchor="middle" x="413" y="-230.3" font-family="Times,serif" font-size="14.00">PicturesPost</text>
</g>
<!-- Mercury::Image -->
<g id="node9" class="node"><title>Mercury::Image</title>
<ellipse fill="none" stroke="black" cx="554" cy="-234" rx="67.3907" ry="18"/>
<text text-anchor="middle" x="554" y="-230.3" font-family="Times,serif" font-size="14.00">Mercury::Image</text>
</g>
<!-- ActiveRecord::Base -->
<g id="node10" class="node"><title>ActiveRecord::Base</title>
<ellipse fill="none" stroke="black" cx="297" cy="-327" rx="82.3139" ry="18"/>
<text text-anchor="middle" x="297" y="-323.3" font-family="Times,serif" font-size="14.00">ActiveRecord::Base</text>
</g>
<!-- ActiveRecord::Base&#45;&gt;Role -->
<g id="edge2" class="edge"><title>ActiveRecord::Base&#45;&gt;Role</title>
<path fill="none" stroke="black" d="M276.355,-309.521C254.412,-292.004 220.13,-264.639 199.784,-248.398"/>
</g>
<!-- ActiveRecord::Base&#45;&gt;Post -->
<g id="edge5" class="edge"><title>ActiveRecord::Base&#45;&gt;Post</title>
<path fill="none" stroke="black" d="M261.278,-310.752C219.039,-292.364 153.593,-262.604 147,-252 118.62,-206.353 137.872,-138.614 149.272,-107.597"/>
</g>
<!-- ActiveRecord::Base&#45;&gt;Project -->
<g id="edge7" class="edge"><title>ActiveRecord::Base&#45;&gt;Project</title>
<path fill="none" stroke="black" d="M290.981,-308.884C285.26,-292.614 276.704,-268.284 270.992,-252.04"/>
</g>
<!-- ActiveRecord::Base&#45;&gt;User -->
<g id="edge9" class="edge"><title>ActiveRecord::Base&#45;&gt;User</title>
<path fill="none" stroke="black" d="M305.501,-308.747C315.559,-285.612 328.726,-244.192 310,-216 288.006,-182.889 240.852,-170.417 210.878,-165.751"/>
</g>
<!-- ActiveRecord::Base&#45;&gt;PicturesPost -->
<g id="edge10" class="edge"><title>ActiveRecord::Base&#45;&gt;PicturesPost</title>
<path fill="none" stroke="black" d="M318.007,-309.521C339.16,-292.926 371.582,-267.492 392.539,-251.051"/>
</g>
<!-- ActiveRecord::Base&#45;&gt;Mercury::Image -->
<g id="edge11" class="edge"><title>ActiveRecord::Base&#45;&gt;Mercury::Image</title>
<path fill="none" stroke="black" d="M338.291,-311.379C386.96,-294.146 467.229,-265.724 514.917,-248.839"/>
</g>
<!-- Object -->
<g id="node11" class="node"><title>Object</title>
<ellipse fill="none" stroke="black" cx="707" cy="-327" rx="35.1455" ry="18"/>
<text text-anchor="middle" x="707" y="-323.3" font-family="Times,serif" font-size="14.00">Object</text>
</g>
<!-- Object&#45;&gt;Ability -->
<g id="edge3" class="edge"><title>Object&#45;&gt;Ability</title>
<path fill="none" stroke="black" d="M699.847,-309.309C692.898,-293.095 682.395,-268.589 675.373,-252.203"/>
</g>
<!-- Object&#45;&gt;Message -->
<g id="edge6" class="edge"><title>Object&#45;&gt;Message</title>
<path fill="none" stroke="black" d="M714.153,-309.309C721.102,-293.095 731.605,-268.589 738.627,-252.203"/>
</g>
</g>
</svg>
