<?xml version="1.0" encoding="UTF-8" standalone="no"?>
<!DOCTYPE svg PUBLIC "-//W3C//DTD SVG 1.1//EN"
 "http://www.w3.org/Graphics/SVG/1.1/DTD/svg11.dtd">
<!-- Generated by graphviz version 2.36.0 (20140111.2315)
 -->
<!-- Title: models_diagram Pages: 1 -->
<svg width="718pt" height="994pt"
 viewBox="0.00 0.00 717.80 994.00" xmlns="http://www.w3.org/2000/svg" xmlns:xlink="http://www.w3.org/1999/xlink">
<g id="graph0" class="graph" transform="scale(1 1) rotate(0) translate(4 990)">
<title>models_diagram</title>
<polygon fill="white" stroke="none" points="-4,4 -4,-990 713.797,-990 713.797,4 -4,4"/>
<!-- _diagram_info -->
<g id="node1" class="node"><title>_diagram_info</title>
<text text-anchor="start" x="11.7965" y="-971.6" font-family="Times,serif" font-size="13.00">Models diagram</text>
<text text-anchor="start" x="11.7965" y="-957.6" font-family="Times,serif" font-size="13.00">Date: Apr 02 2014 &#45; 10:02</text>
<text text-anchor="start" x="11.7965" y="-943.6" font-family="Times,serif" font-size="13.00">Migration version: 20140401201249</text>
<text text-anchor="start" x="11.7965" y="-929.6" font-family="Times,serif" font-size="13.00">Generated by RailRoady 1.1.1</text>
<text text-anchor="start" x="11.7965" y="-915.6" font-family="Times,serif" font-size="13.00">http://railroady.prestonlee.com</text>
</g>
<!-- Role -->
<g id="node2" class="node"><title>Role</title>
<path fill="none" stroke="black" d="M96.7965,-765C96.7965,-765 204.797,-765 204.797,-765 210.797,-765 216.797,-771 216.797,-777 216.797,-777 216.797,-859 216.797,-859 216.797,-865 210.797,-871 204.797,-871 204.797,-871 96.7965,-871 96.7965,-871 90.7965,-871 84.7965,-865 84.7965,-859 84.7965,-859 84.7965,-777 84.7965,-777 84.7965,-771 90.7965,-765 96.7965,-765"/>
<text text-anchor="middle" x="150.797" y="-855.8" font-family="Times,serif" font-size="14.00">Role</text>
<polyline fill="none" stroke="black" points="84.7965,-848 216.797,-848 "/>
<text text-anchor="start" x="92.7965" y="-832.8" font-family="Times,serif" font-size="14.00">id :integer</text>
<text text-anchor="start" x="92.7965" y="-817.8" font-family="Times,serif" font-size="14.00">name :string</text>
<text text-anchor="start" x="92.7965" y="-802.8" font-family="Times,serif" font-size="14.00">alias :string</text>
<text text-anchor="start" x="92.7965" y="-787.8" font-family="Times,serif" font-size="14.00">created_at :datetime</text>
<text text-anchor="start" x="92.7965" y="-772.8" font-family="Times,serif" font-size="14.00">updated_at :datetime</text>
</g>
<!-- User -->
<g id="node7" class="node"><title>User</title>
<path fill="none" stroke="black" d="M97.2965,-276.5C97.2965,-276.5 276.297,-276.5 276.297,-276.5 282.297,-276.5 288.297,-282.5 288.297,-288.5 288.297,-288.5 288.297,-715.5 288.297,-715.5 288.297,-721.5 282.297,-727.5 276.297,-727.5 276.297,-727.5 97.2965,-727.5 97.2965,-727.5 91.2965,-727.5 85.2965,-721.5 85.2965,-715.5 85.2965,-715.5 85.2965,-288.5 85.2965,-288.5 85.2965,-282.5 91.2965,-276.5 97.2965,-276.5"/>
<text text-anchor="middle" x="186.797" y="-712.3" font-family="Times,serif" font-size="14.00">User</text>
<polyline fill="none" stroke="black" points="85.2965,-704.5 288.297,-704.5 "/>
<text text-anchor="start" x="93.2965" y="-689.3" font-family="Times,serif" font-size="14.00">id :integer</text>
<text text-anchor="start" x="93.2965" y="-674.3" font-family="Times,serif" font-size="14.00">email :string</text>
<text text-anchor="start" x="93.2965" y="-659.3" font-family="Times,serif" font-size="14.00">encrypted_password :string</text>
<text text-anchor="start" x="93.2965" y="-644.3" font-family="Times,serif" font-size="14.00">reset_password_token :string</text>
<text text-anchor="start" x="93.2965" y="-629.3" font-family="Times,serif" font-size="14.00">reset_password_sent_at :datetime</text>
<text text-anchor="start" x="93.2965" y="-614.3" font-family="Times,serif" font-size="14.00">remember_created_at :datetime</text>
<text text-anchor="start" x="93.2965" y="-599.3" font-family="Times,serif" font-size="14.00">sign_in_count :integer</text>
<text text-anchor="start" x="93.2965" y="-584.3" font-family="Times,serif" font-size="14.00">current_sign_in_at :datetime</text>
<text text-anchor="start" x="93.2965" y="-569.3" font-family="Times,serif" font-size="14.00">last_sign_in_at :datetime</text>
<text text-anchor="start" x="93.2965" y="-554.3" font-family="Times,serif" font-size="14.00">current_sign_in_ip :string</text>
<text text-anchor="start" x="93.2965" y="-539.3" font-family="Times,serif" font-size="14.00">last_sign_in_ip :string</text>
<text text-anchor="start" x="93.2965" y="-524.3" font-family="Times,serif" font-size="14.00">first_name :string</text>
<text text-anchor="start" x="93.2965" y="-509.3" font-family="Times,serif" font-size="14.00">last_name :string</text>
<text text-anchor="start" x="93.2965" y="-494.3" font-family="Times,serif" font-size="14.00">subdomain :string</text>
<text text-anchor="start" x="93.2965" y="-479.3" font-family="Times,serif" font-size="14.00">username :string</text>
<text text-anchor="start" x="93.2965" y="-464.3" font-family="Times,serif" font-size="14.00">skill :string</text>
<text text-anchor="start" x="93.2965" y="-449.3" font-family="Times,serif" font-size="14.00">bio :text</text>
<text text-anchor="start" x="93.2965" y="-434.3" font-family="Times,serif" font-size="14.00">color :string</text>
<text text-anchor="start" x="93.2965" y="-419.3" font-family="Times,serif" font-size="14.00">analytics :text</text>
<text text-anchor="start" x="93.2965" y="-404.3" font-family="Times,serif" font-size="14.00">typekit :text</text>
<text text-anchor="start" x="93.2965" y="-389.3" font-family="Times,serif" font-size="14.00">created_at :datetime</text>
<text text-anchor="start" x="93.2965" y="-374.3" font-family="Times,serif" font-size="14.00">updated_at :datetime</text>
<text text-anchor="start" x="93.2965" y="-359.3" font-family="Times,serif" font-size="14.00">logo :string</text>
<text text-anchor="start" x="93.2965" y="-344.3" font-family="Times,serif" font-size="14.00">external_link :string</text>
<text text-anchor="start" x="93.2965" y="-329.3" font-family="Times,serif" font-size="14.00">is_enabled :boolean</text>
<text text-anchor="start" x="93.2965" y="-314.3" font-family="Times,serif" font-size="14.00">external_domain :string</text>
<text text-anchor="start" x="93.2965" y="-299.3" font-family="Times,serif" font-size="14.00">twitter :string</text>
<text text-anchor="start" x="93.2965" y="-284.3" font-family="Times,serif" font-size="14.00">external_resource :string</text>
</g>
<!-- Role&#45;&gt;User -->
<g id="edge1" class="edge"><title>Role&#45;&gt;User</title>
<path fill="none" stroke="#7b162a" d="M157.936,-754.724C158.561,-749.273 159.214,-743.578 159.89,-737.689"/>
<polygon fill="#7b162a" stroke="#7b162a" points="157.921,-754.862 152.311,-764.284 157.351,-759.829 156.782,-764.797 156.782,-764.797 156.782,-764.797 157.351,-759.829 161.252,-765.309 157.921,-754.862 157.921,-754.862"/>
<polygon fill="#7b162a" stroke="#7b162a" points="159.907,-737.536 165.517,-728.114 160.476,-732.569 161.046,-727.602 161.046,-727.602 161.046,-727.602 160.476,-732.569 156.575,-727.089 159.907,-737.536 159.907,-737.536"/>
</g>
<!-- Ability -->
<g id="node3" class="node"><title>Ability</title>
<polygon fill="none" stroke="black" points="572.797,-795 572.797,-841 628.797,-841 628.797,-795 572.797,-795"/>
<text text-anchor="middle" x="600.797" y="-825.8" font-family="Times,serif" font-size="14.00">Ability</text>
<polyline fill="none" stroke="black" points="572.797,-818 628.797,-818 "/>
<text text-anchor="middle" x="600.797" y="-802.8" font-family="Times,serif" font-size="14.00"> </text>
</g>
<!-- Post -->
<g id="node4" class="node"><title>Post</title>
<path fill="none" stroke="black" d="M67.7965,-73C67.7965,-73 175.797,-73 175.797,-73 181.797,-73 187.797,-79 187.797,-85 187.797,-85 187.797,-227 187.797,-227 187.797,-233 181.797,-239 175.797,-239 175.797,-239 67.7965,-239 67.7965,-239 61.7965,-239 55.7965,-233 55.7965,-227 55.7965,-227 55.7965,-85 55.7965,-85 55.7965,-79 61.7965,-73 67.7965,-73"/>
<text text-anchor="middle" x="121.797" y="-223.8" font-family="Times,serif" font-size="14.00">Post</text>
<polyline fill="none" stroke="black" points="55.7965,-216 187.797,-216 "/>
<text text-anchor="start" x="63.7965" y="-200.8" font-family="Times,serif" font-size="14.00">id :integer</text>
<text text-anchor="start" x="63.7965" y="-185.8" font-family="Times,serif" font-size="14.00">title :string</text>
<text text-anchor="start" x="63.7965" y="-170.8" font-family="Times,serif" font-size="14.00">body :text</text>
<text text-anchor="start" x="63.7965" y="-155.8" font-family="Times,serif" font-size="14.00">user_id :integer</text>
<text text-anchor="start" x="63.7965" y="-140.8" font-family="Times,serif" font-size="14.00">is_public :boolean</text>
<text text-anchor="start" x="63.7965" y="-125.8" font-family="Times,serif" font-size="14.00">likes :integer</text>
<text text-anchor="start" x="63.7965" y="-110.8" font-family="Times,serif" font-size="14.00">created_at :datetime</text>
<text text-anchor="start" x="63.7965" y="-95.8" font-family="Times,serif" font-size="14.00">updated_at :datetime</text>
<text text-anchor="start" x="63.7965" y="-80.8" font-family="Times,serif" font-size="14.00">link :string</text>
</g>
<!-- PostsImage -->
<g id="node11" class="node"><title>PostsImage</title>
<ellipse fill="none" stroke="black" cx="121.797" cy="-18" rx="51.4931" ry="18"/>
<text text-anchor="middle" x="121.797" y="-14.3" font-family="Times,serif" font-size="14.00">PostsImage</text>
</g>
<!-- Post&#45;&gt;PostsImage -->
<g id="edge4" class="edge"><title>Post&#45;&gt;PostsImage</title>
<path fill="none" stroke="#3b88d1" d="M121.797,-64.7352C121.797,-58.1371 121.797,-51.8533 121.797,-46.173"/>
<ellipse fill="none" stroke="#3b88d1" cx="121.797" cy="-68.7508" rx="4" ry="4"/>
<polygon fill="#3b88d1" stroke="#3b88d1" points="121.797,-46.0696 126.297,-36.0696 121.797,-41.0696 121.797,-36.0696 121.797,-36.0696 121.797,-36.0696 121.797,-41.0696 117.297,-36.0696 121.797,-46.0696 121.797,-46.0696"/>
</g>
<!-- Message -->
<g id="node5" class="node"><title>Message</title>
<polygon fill="none" stroke="black" points="647.297,-795 647.297,-841 710.297,-841 710.297,-795 647.297,-795"/>
<text text-anchor="middle" x="678.797" y="-825.8" font-family="Times,serif" font-size="14.00">Message</text>
<polyline fill="none" stroke="black" points="647.297,-818 710.297,-818 "/>
<text text-anchor="middle" x="678.797" y="-802.8" font-family="Times,serif" font-size="14.00"> </text>
</g>
<!-- Project -->
<g id="node6" class="node"><title>Project</title>
<path fill="none" stroke="black" d="M246.797,-780C246.797,-780 354.797,-780 354.797,-780 360.797,-780 366.797,-786 366.797,-792 366.797,-792 366.797,-844 366.797,-844 366.797,-850 360.797,-856 354.797,-856 354.797,-856 246.797,-856 246.797,-856 240.797,-856 234.797,-850 234.797,-844 234.797,-844 234.797,-792 234.797,-792 234.797,-786 240.797,-780 246.797,-780"/>
<text text-anchor="middle" x="300.797" y="-840.8" font-family="Times,serif" font-size="14.00">Project</text>
<polyline fill="none" stroke="black" points="234.797,-833 366.797,-833 "/>
<text text-anchor="start" x="242.797" y="-817.8" font-family="Times,serif" font-size="14.00">id :integer</text>
<text text-anchor="start" x="242.797" y="-802.8" font-family="Times,serif" font-size="14.00">created_at :datetime</text>
<text text-anchor="start" x="242.797" y="-787.8" font-family="Times,serif" font-size="14.00">updated_at :datetime</text>
</g>
<!-- User&#45;&gt;Post -->
<g id="edge8" class="edge"><title>User&#45;&gt;Post</title>
<path fill="none" stroke="#942af2" d="M142.862,-268.483C141.596,-261.784 140.357,-255.226 139.153,-248.857"/>
<ellipse fill="none" stroke="#942af2" cx="143.605" cy="-272.419" rx="4.00001" ry="4.00001"/>
<polygon fill="#942af2" stroke="#942af2" points="139.149,-248.837 141.714,-238.175 138.221,-243.924 137.293,-239.011 137.293,-239.011 137.293,-239.011 138.221,-243.924 132.871,-239.846 139.149,-248.837 139.149,-248.837"/>
</g>
<!-- PicturesPost -->
<g id="node8" class="node"><title>PicturesPost</title>
<path fill="none" stroke="black" d="M434.797,-765C434.797,-765 542.797,-765 542.797,-765 548.797,-765 554.797,-771 554.797,-777 554.797,-777 554.797,-859 554.797,-859 554.797,-865 548.797,-871 542.797,-871 542.797,-871 434.797,-871 434.797,-871 428.797,-871 422.797,-865 422.797,-859 422.797,-859 422.797,-777 422.797,-777 422.797,-771 428.797,-765 434.797,-765"/>
<text text-anchor="middle" x="488.797" y="-855.8" font-family="Times,serif" font-size="14.00">PicturesPost</text>
<polyline fill="none" stroke="black" points="422.797,-848 554.797,-848 "/>
<text text-anchor="start" x="430.797" y="-832.8" font-family="Times,serif" font-size="14.00">id :integer</text>
<text text-anchor="start" x="430.797" y="-817.8" font-family="Times,serif" font-size="14.00">post_id :integer</text>
<text text-anchor="start" x="430.797" y="-802.8" font-family="Times,serif" font-size="14.00">image :string</text>
<text text-anchor="start" x="430.797" y="-787.8" font-family="Times,serif" font-size="14.00">created_at :datetime</text>
<text text-anchor="start" x="430.797" y="-772.8" font-family="Times,serif" font-size="14.00">updated_at :datetime</text>
</g>
<!-- ActiveRecord::Base -->
<g id="node9" class="node"><title>ActiveRecord::Base</title>
<ellipse fill="none" stroke="black" cx="300.797" cy="-947" rx="82.3139" ry="18"/>
<text text-anchor="middle" x="300.797" y="-943.3" font-family="Times,serif" font-size="14.00">ActiveRecord::Base</text>
</g>
<!-- ActiveRecord::Base&#45;&gt;Role -->
<g id="edge2" class="edge"><title>ActiveRecord::Base&#45;&gt;Role</title>
<path fill="none" stroke="black" d="M281.187,-929.397C263.636,-914.538 236.944,-891.938 212.271,-871.048"/>
</g>
<!-- ActiveRecord::Base&#45;&gt;Post -->
<g id="edge5" class="edge"><title>ActiveRecord::Base&#45;&gt;Post</title>
<path fill="none" stroke="black" d="M265.849,-930.542C248.568,-923.202 227.287,-914.612 207.797,-908 150.211,-888.463 112.707,-920.326 75.7965,-872 -67.1874,-684.798 26.5446,-383.295 85.0174,-239.039"/>
</g>
<!-- ActiveRecord::Base&#45;&gt;Project -->
<g id="edge7" class="edge"><title>ActiveRecord::Base&#45;&gt;Project</title>
<path fill="none" stroke="black" d="M300.797,-928.872C300.797,-910.321 300.797,-880.159 300.797,-856.126"/>
</g>
<!-- ActiveRecord::Base&#45;&gt;User -->
<g id="edge9" class="edge"><title>ActiveRecord::Base&#45;&gt;User</title>
<path fill="none" stroke="black" d="M325.837,-929.58C343.486,-916.395 365.705,-896.133 375.797,-872 394.314,-827.716 390.593,-809.662 375.797,-764 357.817,-708.517 323.139,-654.94 288.343,-610.917"/>
</g>
<!-- ActiveRecord::Base&#45;&gt;PicturesPost -->
<g id="edge10" class="edge"><title>ActiveRecord::Base&#45;&gt;PicturesPost</title>
<path fill="none" stroke="black" d="M324.989,-929.657C349.584,-913.043 388.785,-886.561 422.672,-863.669"/>
</g>
<!-- Object -->
<g id="node10" class="node"><title>Object</title>
<ellipse fill="none" stroke="black" cx="639.797" cy="-947" rx="35.1455" ry="18"/>
<text text-anchor="middle" x="639.797" y="-943.3" font-family="Times,serif" font-size="14.00">Object</text>
</g>
<!-- Object&#45;&gt;Ability -->
<g id="edge3" class="edge"><title>Object&#45;&gt;Ability</title>
<path fill="none" stroke="black" d="M634.618,-929.135C627.656,-906.464 615.266,-866.118 607.57,-841.058"/>
</g>
<!-- Object&#45;&gt;Message -->
<g id="edge6" class="edge"><title>Object&#45;&gt;Message</title>
<path fill="none" stroke="black" d="M644.975,-929.135C651.937,-906.464 664.327,-866.118 672.023,-841.058"/>
</g>
</g>
</svg>
