<?xml version="1.0" encoding="UTF-8" standalone="no"?>
<!DOCTYPE svg PUBLIC "-//W3C//DTD SVG 1.1//EN"
 "http://www.w3.org/Graphics/SVG/1.1/DTD/svg11.dtd">
<!-- Generated by graphviz version 2.36.0 (20140111.2315)
 -->
<!-- Title: models_diagram Pages: 1 -->
<svg width="952pt" height="374pt"
 viewBox="0.00 0.00 952.00 374.00" xmlns="http://www.w3.org/2000/svg" xmlns:xlink="http://www.w3.org/1999/xlink">
<g id="graph0" class="graph" transform="scale(1 1) rotate(0) translate(4 370)">
<title>models_diagram</title>
<polygon fill="white" stroke="none" points="-4,4 -4,-370 948,-370 948,4 -4,4"/>
<!-- _diagram_info -->
<g id="node1" class="node"><title>_diagram_info</title>
<text text-anchor="start" x="8" y="-351.6" font-family="Times,serif" font-size="13.00">Models diagram</text>
<text text-anchor="start" x="8" y="-337.6" font-family="Times,serif" font-size="13.00">Date: Apr 23 2014 &#45; 15:44</text>
<text text-anchor="start" x="8" y="-323.6" font-family="Times,serif" font-size="13.00">Migration version: 20140423170640</text>
<text text-anchor="start" x="8" y="-309.6" font-family="Times,serif" font-size="13.00">Generated by RailRoady 1.1.1</text>
<text text-anchor="start" x="8" y="-295.6" font-family="Times,serif" font-size="13.00">http://railroady.prestonlee.com</text>
</g>
<!-- Profile -->
<g id="node2" class="node"><title>Profile</title>
<ellipse fill="none" stroke="black" cx="187" cy="-90" rx="35.1455" ry="18"/>
<text text-anchor="middle" x="187" y="-86.3" font-family="Times,serif" font-size="14.00">Profile</text>
</g>
<!-- Merit::RankRules -->
<g id="node3" class="node"><title>Merit::RankRules</title>
<polygon fill="none" stroke="black" points="674,-252 560,-252 560,-216 674,-216 674,-252"/>
<text text-anchor="middle" x="617" y="-230.3" font-family="Times,serif" font-size="14.00">Merit::RankRules</text>
</g>
<!-- Merit::PointRules -->
<g id="node4" class="node"><title>Merit::PointRules</title>
<polygon fill="none" stroke="black" points="807.25,-252 692.75,-252 692.75,-216 807.25,-216 807.25,-252"/>
<text text-anchor="middle" x="750" y="-230.3" font-family="Times,serif" font-size="14.00">Merit::PointRules</text>
</g>
<!-- Merit::BadgeRules -->
<g id="node5" class="node"><title>Merit::BadgeRules</title>
<polygon fill="none" stroke="black" points="944.25,-252 825.75,-252 825.75,-216 944.25,-216 944.25,-252"/>
<text text-anchor="middle" x="885" y="-230.3" font-family="Times,serif" font-size="14.00">Merit::BadgeRules</text>
</g>
<!-- Prompt -->
<g id="node6" class="node"><title>Prompt</title>
<ellipse fill="none" stroke="black" cx="334" cy="-18" rx="38.0212" ry="18"/>
<text text-anchor="middle" x="334" y="-14.3" font-family="Times,serif" font-size="14.00">Prompt</text>
</g>
<!-- Project -->
<g id="node9" class="node"><title>Project</title>
<ellipse fill="none" stroke="black" cx="314" cy="-90" rx="36.096" ry="18"/>
<text text-anchor="middle" x="314" y="-86.3" font-family="Times,serif" font-size="14.00">Project</text>
</g>
<!-- Prompt&#45;&gt;Project -->
<g id="edge5" class="edge"><title>Prompt&#45;&gt;Project</title>
<path fill="none" stroke="#fc36a9" d="M333.317,-44.1645C331.87,-50.3203 329.997,-56.9178 327.941,-63.1071"/>
<ellipse fill="none" stroke="#fc36a9" cx="334.183" cy="-40.0387" rx="4.00001" ry="4.00001"/>
<polygon fill="#fc36a9" stroke="#fc36a9" points="327.848,-63.3634 320.209,-71.2309 326.144,-68.064 324.439,-72.7646 324.439,-72.7646 324.439,-72.7646 326.144,-68.064 328.67,-74.2984 327.848,-63.3634 327.848,-63.3634"/>
</g>
<!-- Role -->
<g id="node7" class="node"><title>Role</title>
<ellipse fill="none" stroke="black" cx="242" cy="-234" rx="26.949" ry="18"/>
<text text-anchor="middle" x="242" y="-230.3" font-family="Times,serif" font-size="14.00">Role</text>
</g>
<!-- User -->
<g id="node10" class="node"><title>User</title>
<ellipse fill="none" stroke="black" cx="250" cy="-162" rx="27.4223" ry="18"/>
<text text-anchor="middle" x="250" y="-158.3" font-family="Times,serif" font-size="14.00">User</text>
</g>
<!-- Role&#45;&gt;User -->
<g id="edge7" class="edge"><title>Role&#45;&gt;User</title>
<path fill="none" stroke="#87f89b" d="M245.124,-205.665C245.708,-200.552 246.319,-195.21 246.902,-190.104"/>
<polygon fill="#87f89b" stroke="#87f89b" points="245.113,-205.761 239.507,-215.186 244.545,-210.729 243.978,-215.697 243.978,-215.697 243.978,-215.697 244.545,-210.729 248.448,-216.208 245.113,-205.761 245.113,-205.761"/>
<polygon fill="#87f89b" stroke="#87f89b" points="246.91,-190.04 252.516,-180.615 247.477,-185.072 248.045,-180.104 248.045,-180.104 248.045,-180.104 247.477,-185.072 243.574,-179.593 246.91,-190.04 246.91,-190.04"/>
</g>
<!-- Comment -->
<g id="node8" class="node"><title>Comment</title>
<ellipse fill="none" stroke="black" cx="230" cy="-18" rx="47.169" ry="18"/>
<text text-anchor="middle" x="230" y="-14.3" font-family="Times,serif" font-size="14.00">Comment</text>
</g>
<!-- Project&#45;&gt;Prompt -->
<g id="edge10" class="edge"><title>Project&#45;&gt;Prompt</title>
<path fill="none" stroke="#dd7e91" d="M314.691,-63.7986C316.242,-57.2091 318.28,-50.1156 320.507,-43.56"/>
<ellipse fill="none" stroke="#dd7e91" cx="313.852" cy="-67.7825" rx="4.00001" ry="4.00001"/>
<ellipse fill="#dd7e91" stroke="#dd7e91" cx="322.035" cy="-39.3794" rx="4.00001" ry="4.00001"/>
</g>
<!-- Project&#45;&gt;Comment -->
<g id="edge11" class="edge"><title>Project&#45;&gt;Comment</title>
<path fill="none" stroke="#859763" d="M290.002,-69.0018C279.539,-60.2827 267.238,-50.0316 256.506,-41.0884"/>
<ellipse fill="none" stroke="#859763" cx="293.113" cy="-71.594" rx="4.00002" ry="4.00002"/>
<polygon fill="#859763" stroke="#859763" points="256.344,-40.9534 251.543,-31.0946 252.503,-37.7525 248.662,-34.5516 248.662,-34.5516 248.662,-34.5516 252.503,-37.7525 245.781,-38.0086 256.344,-40.9534 256.344,-40.9534"/>
</g>
<!-- User&#45;&gt;Profile -->
<g id="edge13" class="edge"><title>User&#45;&gt;Profile</title>
<path fill="none" stroke="#e4185e" d="M231.231,-140.145C223.491,-131.545 214.518,-121.576 206.685,-112.872"/>
<ellipse fill="none" stroke="#e4185e" cx="233.963" cy="-143.182" rx="4.00002" ry="4.00002"/>
<ellipse fill="#e4185e" stroke="#e4185e" cx="203.893" cy="-109.77" rx="4.00002" ry="4.00002"/>
</g>
<!-- User&#45;&gt;Comment -->
<g id="edge15" class="edge"><title>User&#45;&gt;Comment</title>
<path fill="none" stroke="#84510b" d="M246.469,-135.929C242.919,-110.725 237.464,-71.9942 233.816,-46.0947"/>
<ellipse fill="none" stroke="#84510b" cx="247.03" cy="-139.911" rx="4.00001" ry="4.00001"/>
<polygon fill="#84510b" stroke="#84510b" points="233.816,-46.0915 236.877,-35.5616 233.118,-41.1404 232.421,-36.1893 232.421,-36.1893 232.421,-36.1893 233.118,-41.1404 227.965,-36.8169 233.816,-46.0915 233.816,-46.0915"/>
</g>
<!-- User&#45;&gt;Project -->
<g id="edge14" class="edge"><title>User&#45;&gt;Project</title>
<path fill="none" stroke="#0db42d" d="M269.067,-140.145C276.472,-132.046 284.988,-122.732 292.601,-114.406"/>
<ellipse fill="none" stroke="#0db42d" cx="266.272" cy="-143.203" rx="4.00002" ry="4.00002"/>
<polygon fill="#0db42d" stroke="#0db42d" points="292.81,-114.177 302.878,-109.833 296.183,-110.487 299.557,-106.797 299.557,-106.797 299.557,-106.797 296.183,-110.487 296.236,-103.76 292.81,-114.177 292.81,-114.177"/>
</g>
<!-- Mercury::Image -->
<g id="node11" class="node"><title>Mercury::Image</title>
<ellipse fill="none" stroke="black" cx="474" cy="-234" rx="67.3907" ry="18"/>
<text text-anchor="middle" x="474" y="-230.3" font-family="Times,serif" font-size="14.00">Mercury::Image</text>
</g>
<!-- ActiveRecord::Base -->
<g id="node12" class="node"><title>ActiveRecord::Base</title>
<ellipse fill="none" stroke="black" cx="297" cy="-327" rx="82.3139" ry="18"/>
<text text-anchor="middle" x="297" y="-323.3" font-family="Times,serif" font-size="14.00">ActiveRecord::Base</text>
</g>
<!-- ActiveRecord::Base&#45;&gt;Profile -->
<g id="edge1" class="edge"><title>ActiveRecord::Base&#45;&gt;Profile</title>
<path fill="none" stroke="black" d="M267.224,-310.119C246.408,-297.334 219.933,-277.337 206,-252 180.232,-205.141 182.248,-139.153 184.999,-108.242"/>
</g>
<!-- ActiveRecord::Base&#45;&gt;Prompt -->
<g id="edge6" class="edge"><title>ActiveRecord::Base&#45;&gt;Prompt</title>
<path fill="none" stroke="black" d="M303.656,-308.833C317.351,-272.482 348.295,-184.773 359,-108 361.21,-92.1533 362.498,-87.613 359,-72 356.109,-59.0941 349.707,-45.6284 344.106,-35.4996"/>
</g>
<!-- ActiveRecord::Base&#45;&gt;Role -->
<g id="edge8" class="edge"><title>ActiveRecord::Base&#45;&gt;Role</title>
<path fill="none" stroke="black" d="M286.655,-308.884C276.635,-292.305 261.556,-267.357 251.745,-251.123"/>
</g>
<!-- ActiveRecord::Base&#45;&gt;Comment -->
<g id="edge9" class="edge"><title>ActiveRecord::Base&#45;&gt;Comment</title>
<path fill="none" stroke="black" d="M263.285,-310.451C239.387,-297.831 208.265,-277.895 189,-252 148.896,-198.096 153.346,-174.385 143,-108 140.536,-92.1908 135.164,-85.9497 143,-72 154.174,-52.1085 176.178,-38.8061 195.26,-30.503"/>
</g>
<!-- ActiveRecord::Base&#45;&gt;Project -->
<g id="edge12" class="edge"><title>ActiveRecord::Base&#45;&gt;Project</title>
<path fill="none" stroke="black" d="M298.25,-308.72C301.394,-265.261 309.602,-151.791 312.748,-108.305"/>
</g>
<!-- ActiveRecord::Base&#45;&gt;User -->
<g id="edge16" class="edge"><title>ActiveRecord::Base&#45;&gt;User</title>
<path fill="none" stroke="black" d="M295.715,-308.816C293.692,-286.812 288.818,-247.734 278,-216 273.568,-202.998 266.262,-189.313 260.224,-179.107"/>
</g>
<!-- ActiveRecord::Base&#45;&gt;Mercury::Image -->
<g id="edge17" class="edge"><title>ActiveRecord::Base&#45;&gt;Mercury::Image</title>
<path fill="none" stroke="black" d="M327.831,-310.149C360.615,-293.294 412.101,-266.824 444.405,-250.215"/>
</g>
<!-- Object -->
<g id="node13" class="node"><title>Object</title>
<ellipse fill="none" stroke="black" cx="750" cy="-327" rx="35.1455" ry="18"/>
<text text-anchor="middle" x="750" y="-323.3" font-family="Times,serif" font-size="14.00">Object</text>
</g>
<!-- Object&#45;&gt;Merit::RankRules -->
<g id="edge2" class="edge"><title>Object&#45;&gt;Merit::RankRules</title>
<path fill="none" stroke="black" d="M729.8,-312.179C706.256,-296.07 667.339,-269.442 641.933,-252.06"/>
</g>
<!-- Object&#45;&gt;Merit::PointRules -->
<g id="edge3" class="edge"><title>Object&#45;&gt;Merit::PointRules</title>
<path fill="none" stroke="black" d="M750,-308.884C750,-292.614 750,-268.284 750,-252.04"/>
</g>
<!-- Object&#45;&gt;Merit::BadgeRules -->
<g id="edge4" class="edge"><title>Object&#45;&gt;Merit::BadgeRules</title>
<path fill="none" stroke="black" d="M770.504,-312.179C794.402,-296.07 833.904,-269.442 859.692,-252.06"/>
</g>
</g>
</svg>
