<?xml version="1.0" encoding="UTF-8" standalone="no"?>
<!DOCTYPE svg PUBLIC "-//W3C//DTD SVG 1.1//EN"
 "http://www.w3.org/Graphics/SVG/1.1/DTD/svg11.dtd">
<!-- Generated by graphviz version 2.36.0 (20140111.2315)
 -->
<!-- Title: controllers_diagram Pages: 1 -->
<svg width="985pt" height="896pt"
 viewBox="0.00 0.00 985.00 896.00" xmlns="http://www.w3.org/2000/svg" xmlns:xlink="http://www.w3.org/1999/xlink">
<g id="graph0" class="graph" transform="scale(1 1) rotate(0) translate(4 892)">
<title>controllers_diagram</title>
<polygon fill="white" stroke="none" points="-4,4 -4,-892 981,-892 981,4 -4,4"/>
<!-- _diagram_info -->
<g id="node1" class="node"><title>_diagram_info</title>
<text text-anchor="start" x="62" y="-873.6" font-family="Times,serif" font-size="13.00">Controllers diagram</text>
<text text-anchor="start" x="62" y="-859.6" font-family="Times,serif" font-size="13.00">Date: Apr 02 2014 &#45; 10:02</text>
<text text-anchor="start" x="62" y="-845.6" font-family="Times,serif" font-size="13.00">Migration version: 20140401201249</text>
<text text-anchor="start" x="62" y="-831.6" font-family="Times,serif" font-size="13.00">Generated by RailRoady 1.1.1</text>
<text text-anchor="start" x="62" y="-817.6" font-family="Times,serif" font-size="13.00">http://railroady.prestonlee.com</text>
</g>
<!-- ApplicationController -->
<g id="node2" class="node"><title>ApplicationController</title>
<path fill="none" stroke="black" d="M355.351,-317.33C355.351,-317.33 532.351,-317.33 532.351,-317.33 538.351,-317.33 544.351,-323.33 544.351,-329.33 544.351,-329.33 544.351,-458.33 544.351,-458.33 544.351,-464.33 538.351,-470.33 532.351,-470.33 532.351,-470.33 355.351,-470.33 355.351,-470.33 349.351,-470.33 343.351,-464.33 343.351,-458.33 343.351,-458.33 343.351,-329.33 343.351,-329.33 343.351,-323.33 349.351,-317.33 355.351,-317.33"/>
<text text-anchor="middle" x="443.851" y="-455.13" font-family="Times,serif" font-size="14.00">ApplicationController</text>
<polyline fill="none" stroke="black" points="343.351,-447.33 544.351,-447.33 "/>
<text text-anchor="start" x="351.351" y="-432.13" font-family="Times,serif" font-size="14.00">_one_time_conditions_valid_94?</text>
<text text-anchor="start" x="351.351" y="-417.13" font-family="Times,serif" font-size="14.00">_one_time_conditions_valid_96?</text>
<text text-anchor="start" x="351.351" y="-402.13" font-family="Times,serif" font-size="14.00">after_sign_in_path_for</text>
<text text-anchor="start" x="351.351" y="-387.13" font-family="Times,serif" font-size="14.00">check_domain</text>
<polyline fill="none" stroke="black" points="343.351,-379.33 544.351,-379.33 "/>
<polyline fill="none" stroke="black" points="343.351,-355.33 544.351,-355.33 "/>
<text text-anchor="start" x="351.351" y="-340.13" font-family="Times,serif" font-size="14.00">_layout</text>
<text text-anchor="start" x="351.351" y="-325.13" font-family="Times,serif" font-size="14.00">choose_layout</text>
</g>
<!-- ProjectsController -->
<g id="node3" class="node"><title>ProjectsController</title>
<path fill="none" stroke="black" d="M737.062,-392.308C737.062,-392.308 833.062,-392.308 833.062,-392.308 839.062,-392.308 845.062,-398.308 845.062,-404.308 845.062,-404.308 845.062,-563.308 845.062,-563.308 845.062,-569.308 839.062,-575.308 833.062,-575.308 833.062,-575.308 737.062,-575.308 737.062,-575.308 731.062,-575.308 725.062,-569.308 725.062,-563.308 725.062,-563.308 725.062,-404.308 725.062,-404.308 725.062,-398.308 731.062,-392.308 737.062,-392.308"/>
<text text-anchor="middle" x="785.062" y="-560.108" font-family="Times,serif" font-size="14.00">ProjectsController</text>
<polyline fill="none" stroke="black" points="725.062,-552.308 845.062,-552.308 "/>
<text text-anchor="start" x="733.062" y="-537.108" font-family="Times,serif" font-size="14.00">create</text>
<text text-anchor="start" x="733.062" y="-522.108" font-family="Times,serif" font-size="14.00">destroy</text>
<text text-anchor="start" x="733.062" y="-507.108" font-family="Times,serif" font-size="14.00">edit</text>
<text text-anchor="start" x="733.062" y="-492.108" font-family="Times,serif" font-size="14.00">index</text>
<text text-anchor="start" x="733.062" y="-477.108" font-family="Times,serif" font-size="14.00">new</text>
<text text-anchor="start" x="733.062" y="-462.108" font-family="Times,serif" font-size="14.00">show</text>
<text text-anchor="start" x="733.062" y="-447.108" font-family="Times,serif" font-size="14.00">update</text>
<polyline fill="none" stroke="black" points="725.062,-439.308 845.062,-439.308 "/>
<polyline fill="none" stroke="black" points="725.062,-415.308 845.062,-415.308 "/>
<text text-anchor="start" x="733.062" y="-400.108" font-family="Times,serif" font-size="14.00">_layout</text>
</g>
<!-- ApplicationController&#45;&gt;ProjectsController -->
<g id="edge1" class="edge"><title>ApplicationController&#45;&gt;ProjectsController</title>
<path fill="none" stroke="black" d="M544.38,-420.34C603.059,-435.813 675.125,-454.817 725.024,-467.976"/>
</g>
<!-- LandingController -->
<g id="node4" class="node"><title>LandingController</title>
<path fill="none" stroke="black" d="M222.505,-39.1142C222.505,-39.1142 319.505,-39.1142 319.505,-39.1142 325.505,-39.1142 331.505,-45.1142 331.505,-51.1142 331.505,-51.1142 331.505,-120.114 331.505,-120.114 331.505,-126.114 325.505,-132.114 319.505,-132.114 319.505,-132.114 222.505,-132.114 222.505,-132.114 216.505,-132.114 210.505,-126.114 210.505,-120.114 210.505,-120.114 210.505,-51.1142 210.505,-51.1142 210.505,-45.1142 216.505,-39.1142 222.505,-39.1142"/>
<text text-anchor="middle" x="271.005" y="-116.914" font-family="Times,serif" font-size="14.00">LandingController</text>
<polyline fill="none" stroke="black" points="210.505,-109.114 331.505,-109.114 "/>
<text text-anchor="start" x="218.505" y="-93.9142" font-family="Times,serif" font-size="14.00">index</text>
<polyline fill="none" stroke="black" points="210.505,-86.1142 331.505,-86.1142 "/>
<polyline fill="none" stroke="black" points="210.505,-62.1142 331.505,-62.1142 "/>
<text text-anchor="start" x="218.505" y="-46.9142" font-family="Times,serif" font-size="14.00">_layout</text>
</g>
<!-- ApplicationController&#45;&gt;LandingController -->
<g id="edge2" class="edge"><title>ApplicationController&#45;&gt;LandingController</title>
<path fill="none" stroke="black" d="M400.903,-317.246C368.409,-259.303 324.828,-181.59 297.328,-132.552"/>
</g>
<!-- MessagesController -->
<g id="node5" class="node"><title>MessagesController</title>
<path fill="none" stroke="black" d="M86.7303,-515.508C86.7303,-515.508 189.73,-515.508 189.73,-515.508 195.73,-515.508 201.73,-521.508 201.73,-527.508 201.73,-527.508 201.73,-611.508 201.73,-611.508 201.73,-617.508 195.73,-623.508 189.73,-623.508 189.73,-623.508 86.7303,-623.508 86.7303,-623.508 80.7303,-623.508 74.7303,-617.508 74.7303,-611.508 74.7303,-611.508 74.7303,-527.508 74.7303,-527.508 74.7303,-521.508 80.7303,-515.508 86.7303,-515.508"/>
<text text-anchor="middle" x="138.23" y="-608.308" font-family="Times,serif" font-size="14.00">MessagesController</text>
<polyline fill="none" stroke="black" points="74.7303,-600.508 201.73,-600.508 "/>
<text text-anchor="start" x="82.7303" y="-585.308" font-family="Times,serif" font-size="14.00">create</text>
<text text-anchor="start" x="82.7303" y="-570.308" font-family="Times,serif" font-size="14.00">new</text>
<polyline fill="none" stroke="black" points="74.7303,-562.508 201.73,-562.508 "/>
<polyline fill="none" stroke="black" points="74.7303,-538.508 201.73,-538.508 "/>
<text text-anchor="start" x="82.7303" y="-523.308" font-family="Times,serif" font-size="14.00">_layout</text>
</g>
<!-- ApplicationController&#45;&gt;MessagesController -->
<g id="edge3" class="edge"><title>ApplicationController&#45;&gt;MessagesController</title>
<path fill="none" stroke="black" d="M342.933,-451.84C296.51,-478.525 242.837,-509.378 202.099,-532.795"/>
</g>
<!-- MembersController -->
<g id="node6" class="node"><title>MembersController</title>
<path fill="none" stroke="black" d="M530.025,-584.33C530.025,-584.33 714.025,-584.33 714.025,-584.33 720.025,-584.33 726.025,-590.33 726.025,-596.33 726.025,-596.33 726.025,-800.33 726.025,-800.33 726.025,-806.33 720.025,-812.33 714.025,-812.33 714.025,-812.33 530.025,-812.33 530.025,-812.33 524.025,-812.33 518.025,-806.33 518.025,-800.33 518.025,-800.33 518.025,-596.33 518.025,-596.33 518.025,-590.33 524.025,-584.33 530.025,-584.33"/>
<text text-anchor="middle" x="622.025" y="-797.13" font-family="Times,serif" font-size="14.00">MembersController</text>
<polyline fill="none" stroke="black" points="518.025,-789.33 726.025,-789.33 "/>
<text text-anchor="start" x="526.025" y="-774.13" font-family="Times,serif" font-size="14.00">_callback_before_103</text>
<text text-anchor="start" x="526.025" y="-759.13" font-family="Times,serif" font-size="14.00">_one_time_conditions_valid_104?</text>
<text text-anchor="start" x="526.025" y="-744.13" font-family="Times,serif" font-size="14.00">create</text>
<text text-anchor="start" x="526.025" y="-729.13" font-family="Times,serif" font-size="14.00">destroy</text>
<text text-anchor="start" x="526.025" y="-714.13" font-family="Times,serif" font-size="14.00">edit</text>
<text text-anchor="start" x="526.025" y="-699.13" font-family="Times,serif" font-size="14.00">index</text>
<text text-anchor="start" x="526.025" y="-684.13" font-family="Times,serif" font-size="14.00">new</text>
<text text-anchor="start" x="526.025" y="-669.13" font-family="Times,serif" font-size="14.00">params_user</text>
<text text-anchor="start" x="526.025" y="-654.13" font-family="Times,serif" font-size="14.00">show</text>
<text text-anchor="start" x="526.025" y="-639.13" font-family="Times,serif" font-size="14.00">update</text>
<polyline fill="none" stroke="black" points="518.025,-631.33 726.025,-631.33 "/>
<polyline fill="none" stroke="black" points="518.025,-607.33 726.025,-607.33 "/>
<text text-anchor="start" x="526.025" y="-592.13" font-family="Times,serif" font-size="14.00">_layout</text>
</g>
<!-- ApplicationController&#45;&gt;MembersController -->
<g id="edge4" class="edge"><title>ApplicationController&#45;&gt;MembersController</title>
<path fill="none" stroke="black" d="M488.812,-470.668C508.915,-505.024 533.028,-546.233 555.181,-584.092"/>
</g>
<!-- RolesController -->
<g id="node7" class="node"><title>RolesController</title>
<path fill="none" stroke="black" d="M312.756,-642.957C312.756,-642.957 394.756,-642.957 394.756,-642.957 400.756,-642.957 406.756,-648.957 406.756,-654.957 406.756,-654.957 406.756,-813.957 406.756,-813.957 406.756,-819.957 400.756,-825.957 394.756,-825.957 394.756,-825.957 312.756,-825.957 312.756,-825.957 306.756,-825.957 300.756,-819.957 300.756,-813.957 300.756,-813.957 300.756,-654.957 300.756,-654.957 300.756,-648.957 306.756,-642.957 312.756,-642.957"/>
<text text-anchor="middle" x="353.756" y="-810.757" font-family="Times,serif" font-size="14.00">RolesController</text>
<polyline fill="none" stroke="black" points="300.756,-802.957 406.756,-802.957 "/>
<text text-anchor="start" x="308.756" y="-787.757" font-family="Times,serif" font-size="14.00">create</text>
<text text-anchor="start" x="308.756" y="-772.757" font-family="Times,serif" font-size="14.00">destroy</text>
<text text-anchor="start" x="308.756" y="-757.757" font-family="Times,serif" font-size="14.00">edit</text>
<text text-anchor="start" x="308.756" y="-742.757" font-family="Times,serif" font-size="14.00">index</text>
<text text-anchor="start" x="308.756" y="-727.757" font-family="Times,serif" font-size="14.00">new</text>
<text text-anchor="start" x="308.756" y="-712.757" font-family="Times,serif" font-size="14.00">show</text>
<text text-anchor="start" x="308.756" y="-697.757" font-family="Times,serif" font-size="14.00">update</text>
<polyline fill="none" stroke="black" points="300.756,-689.957 406.756,-689.957 "/>
<polyline fill="none" stroke="black" points="300.756,-665.957 406.756,-665.957 "/>
<text text-anchor="start" x="308.756" y="-650.757" font-family="Times,serif" font-size="14.00">_layout</text>
</g>
<!-- ApplicationController&#45;&gt;RolesController -->
<g id="edge5" class="edge"><title>ApplicationController&#45;&gt;RolesController</title>
<path fill="none" stroke="black" d="M423.52,-470.698C410.026,-521.715 392.247,-588.935 378.014,-642.745"/>
</g>
<!-- DashboardController -->
<g id="node8" class="node"><title>DashboardController</title>
<path fill="none" stroke="black" d="M12,-238.304C12,-238.304 196,-238.304 196,-238.304 202,-238.304 208,-244.304 208,-250.304 208,-250.304 208,-349.304 208,-349.304 208,-355.304 202,-361.304 196,-361.304 196,-361.304 12,-361.304 12,-361.304 6,-361.304 0,-355.304 0,-349.304 0,-349.304 0,-250.304 0,-250.304 0,-244.304 6,-238.304 12,-238.304"/>
<text text-anchor="middle" x="104" y="-346.104" font-family="Times,serif" font-size="14.00">DashboardController</text>
<polyline fill="none" stroke="black" points="0,-338.304 208,-338.304 "/>
<text text-anchor="start" x="8" y="-323.104" font-family="Times,serif" font-size="14.00">_callback_before_117</text>
<text text-anchor="start" x="8" y="-308.104" font-family="Times,serif" font-size="14.00">_one_time_conditions_valid_118?</text>
<text text-anchor="start" x="8" y="-293.104" font-family="Times,serif" font-size="14.00">index</text>
<polyline fill="none" stroke="black" points="0,-285.304 208,-285.304 "/>
<polyline fill="none" stroke="black" points="0,-261.304 208,-261.304 "/>
<text text-anchor="start" x="8" y="-246.104" font-family="Times,serif" font-size="14.00">_layout</text>
</g>
<!-- ApplicationController&#45;&gt;DashboardController -->
<g id="edge6" class="edge"><title>ApplicationController&#45;&gt;DashboardController</title>
<path fill="none" stroke="black" d="M343.264,-366.001C300.693,-354.223 251.113,-340.506 208.162,-328.622"/>
</g>
<!-- PostsController -->
<g id="node9" class="node"><title>PostsController</title>
<path fill="none" stroke="black" d="M658.185,-80.4013C658.185,-80.4013 842.185,-80.4013 842.185,-80.4013 848.185,-80.4013 854.185,-86.4013 854.185,-92.4013 854.185,-92.4013 854.185,-341.401 854.185,-341.401 854.185,-347.401 848.185,-353.401 842.185,-353.401 842.185,-353.401 658.185,-353.401 658.185,-353.401 652.185,-353.401 646.185,-347.401 646.185,-341.401 646.185,-341.401 646.185,-92.4013 646.185,-92.4013 646.185,-86.4013 652.185,-80.4013 658.185,-80.4013"/>
<text text-anchor="middle" x="750.185" y="-338.201" font-family="Times,serif" font-size="14.00">PostsController</text>
<polyline fill="none" stroke="black" points="646.185,-330.401 854.185,-330.401 "/>
<text text-anchor="start" x="654.185" y="-315.201" font-family="Times,serif" font-size="14.00">_callback_before_143</text>
<text text-anchor="start" x="654.185" y="-300.201" font-family="Times,serif" font-size="14.00">_one_time_conditions_valid_140?</text>
<text text-anchor="start" x="654.185" y="-285.201" font-family="Times,serif" font-size="14.00">_one_time_conditions_valid_144?</text>
<text text-anchor="start" x="654.185" y="-270.201" font-family="Times,serif" font-size="14.00">add_image</text>
<text text-anchor="start" x="654.185" y="-255.201" font-family="Times,serif" font-size="14.00">add_like</text>
<text text-anchor="start" x="654.185" y="-240.201" font-family="Times,serif" font-size="14.00">create</text>
<text text-anchor="start" x="654.185" y="-225.201" font-family="Times,serif" font-size="14.00">destroy</text>
<text text-anchor="start" x="654.185" y="-210.201" font-family="Times,serif" font-size="14.00">edit</text>
<text text-anchor="start" x="654.185" y="-195.201" font-family="Times,serif" font-size="14.00">index</text>
<text text-anchor="start" x="654.185" y="-180.201" font-family="Times,serif" font-size="14.00">new</text>
<text text-anchor="start" x="654.185" y="-165.201" font-family="Times,serif" font-size="14.00">preview</text>
<text text-anchor="start" x="654.185" y="-150.201" font-family="Times,serif" font-size="14.00">show</text>
<text text-anchor="start" x="654.185" y="-135.201" font-family="Times,serif" font-size="14.00">update</text>
<polyline fill="none" stroke="black" points="646.185,-127.401 854.185,-127.401 "/>
<polyline fill="none" stroke="black" points="646.185,-103.401 854.185,-103.401 "/>
<text text-anchor="start" x="654.185" y="-88.2013" font-family="Times,serif" font-size="14.00">_layout</text>
</g>
<!-- ApplicationController&#45;&gt;PostsController -->
<g id="edge7" class="edge"><title>ApplicationController&#45;&gt;PostsController</title>
<path fill="none" stroke="black" d="M544.581,-335.652C577.103,-316.868 613.213,-296.012 645.981,-277.086"/>
</g>
<!-- JoinController -->
<g id="node10" class="node"><title>JoinController</title>
<path fill="none" stroke="black" d="M500.157,-0.5C500.157,-0.5 574.157,-0.5 574.157,-0.5 580.157,-0.5 586.157,-6.5 586.157,-12.5 586.157,-12.5 586.157,-96.5 586.157,-96.5 586.157,-102.5 580.157,-108.5 574.157,-108.5 574.157,-108.5 500.157,-108.5 500.157,-108.5 494.157,-108.5 488.157,-102.5 488.157,-96.5 488.157,-96.5 488.157,-12.5 488.157,-12.5 488.157,-6.5 494.157,-0.5 500.157,-0.5"/>
<text text-anchor="middle" x="537.157" y="-93.3" font-family="Times,serif" font-size="14.00">JoinController</text>
<polyline fill="none" stroke="black" points="488.157,-85.5 586.157,-85.5 "/>
<text text-anchor="start" x="496.157" y="-70.3" font-family="Times,serif" font-size="14.00">create</text>
<text text-anchor="start" x="496.157" y="-55.3" font-family="Times,serif" font-size="14.00">index</text>
<polyline fill="none" stroke="black" points="488.157,-47.5 586.157,-47.5 "/>
<polyline fill="none" stroke="black" points="488.157,-23.5 586.157,-23.5 "/>
<text text-anchor="start" x="496.157" y="-8.3" font-family="Times,serif" font-size="14.00">_layout</text>
</g>
<!-- ApplicationController&#45;&gt;JoinController -->
<g id="edge8" class="edge"><title>ApplicationController&#45;&gt;JoinController</title>
<path fill="none" stroke="black" d="M464.907,-317.255C482.376,-253.726 506.779,-164.978 522.274,-108.625"/>
</g>
<!-- Mercury::ImagesController -->
<g id="node11" class="node"><title>Mercury::ImagesController</title>
<path fill="none" stroke="black" d="M822,-648.5C822,-648.5 965,-648.5 965,-648.5 971,-648.5 977,-654.5 977,-660.5 977,-660.5 977,-744.5 977,-744.5 977,-750.5 971,-756.5 965,-756.5 965,-756.5 822,-756.5 822,-756.5 816,-756.5 810,-750.5 810,-744.5 810,-744.5 810,-660.5 810,-660.5 810,-654.5 816,-648.5 822,-648.5"/>
<text text-anchor="middle" x="893.5" y="-741.3" font-family="Times,serif" font-size="14.00">Mercury::ImagesController</text>
<polyline fill="none" stroke="black" points="810,-733.5 977,-733.5 "/>
<text text-anchor="start" x="818" y="-718.3" font-family="Times,serif" font-size="14.00">create</text>
<text text-anchor="start" x="818" y="-703.3" font-family="Times,serif" font-size="14.00">destroy</text>
<polyline fill="none" stroke="black" points="810,-695.5 977,-695.5 "/>
<polyline fill="none" stroke="black" points="810,-671.5 977,-671.5 "/>
<text text-anchor="start" x="818" y="-656.3" font-family="Times,serif" font-size="14.00">_layout</text>
</g>
</g>
</svg>
